<svg width="500" height="500" viewBox="0 0 500 500" fill="none" xmlns="http://www.w3.org/2000/svg">
<path d="M500 382.398H0V382.648H500V382.398Z" fill="#EBEBEB"/>
<path d="M449.901 398.494H416.779V398.744H449.901V398.494Z" fill="#EBEBEB"/>
<path d="M331.22 401.208H322.527V401.458H331.22V401.208Z" fill="#EBEBEB"/>
<path d="M415.778 389.208H396.586V389.458H415.778V389.208Z" fill="#EBEBEB"/>
<path d="M95.652 390.888H52.459V391.138H95.652V390.888Z" fill="#EBEBEB"/>
<path d="M110.889 390.888H104.556V391.138H110.889V390.888Z" fill="#EBEBEB"/>
<path d="M225.147 395.111H131.471V395.361H225.147V395.111Z" fill="#EBEBEB"/>
<path d="M237.014 337.8H43.915C40.768 337.8 38.207 335.239 38.207 332.092V60.66C38.207 57.513 40.768 54.952 43.915 54.952H237.014C240.16 54.952 242.721 57.513 242.721 60.66V332.092C242.721 335.239 240.16 337.8 237.014 337.8ZM43.915 55.203C40.905 55.203 38.457 57.651 38.457 60.661V332.093C38.457 335.103 40.905 337.551 43.915 337.551H237.014C240.023 337.551 242.471 335.103 242.471 332.093V60.66C242.471 57.651 240.023 55.202 237.014 55.202L43.915 55.203Z" fill="#EBEBEB"/>
<path d="M453.31 337.8H260.212C257.065 337.8 254.505 335.239 254.505 332.092V60.66C254.505 57.513 257.066 54.952 260.212 54.952H453.31C456.458 54.952 459.018 57.513 459.018 60.66V332.092C459.019 335.239 456.458 337.8 453.31 337.8ZM260.212 55.203C257.203 55.203 254.755 57.651 254.755 60.661V332.093C254.755 335.103 257.203 337.551 260.212 337.551H453.31C456.32 337.551 458.768 335.103 458.768 332.093V60.66C458.768 57.651 456.32 55.202 453.31 55.202L260.212 55.203Z" fill="#EBEBEB"/>
<path d="M182.067 297.333H277.245V82.9206H182.067L182.067 297.333Z" fill="#EBEBEB"/>
<path d="M273.655 293.311L273.655 86.9421L185.658 86.9421L185.658 293.311H273.655Z" fill="#FAFAFA"/>
<path d="M228.646 295.322H230.669L230.669 85.9092H228.646L228.646 295.322Z" fill="#F5F5F5"/>
<path d="M179.872 90.2214L279.443 90.2214V80.1304L179.872 80.1304V90.2214Z" fill="#E0E0E0"/>
<path d="M179.872 92.5347L279.443 92.5347V91.3387L179.872 91.3387V92.5347Z" fill="#F5F5F5"/>
<path d="M179.872 95.2498L279.443 95.2498V94.0538L179.872 94.0538V95.2498Z" fill="#F5F5F5"/>
<path d="M179.872 97.9638L279.443 97.9638V96.7678L179.872 96.7678V97.9638Z" fill="#F5F5F5"/>
<path d="M179.872 100.679L279.443 100.679V99.4828L179.872 99.4828V100.679Z" fill="#F5F5F5"/>
<path d="M179.872 103.393L279.443 103.393V102.197L179.872 102.197V103.393Z" fill="#F5F5F5"/>
<path d="M179.872 106.108L279.443 106.108V104.912L179.872 104.912V106.108Z" fill="#F5F5F5"/>
<path d="M179.872 108.822L279.443 108.822V107.626L179.872 107.626V108.822Z" fill="#F5F5F5"/>
<path d="M179.872 111.537L279.443 111.537V110.341L179.872 110.341V111.537Z" fill="#F5F5F5"/>
<path d="M179.872 114.251L279.443 114.251V113.055L179.872 113.055V114.251Z" fill="#F5F5F5"/>
<path d="M179.872 116.965L279.443 116.965V115.769L179.872 115.769V116.965Z" fill="#F5F5F5"/>
<path d="M179.872 119.68L279.443 119.68V118.484L179.872 118.484V119.68Z" fill="#F5F5F5"/>
<path d="M179.872 122.394L279.443 122.394V121.198L179.872 121.198V122.394Z" fill="#F5F5F5"/>
<path d="M179.872 125.109L279.443 125.109V123.913L179.872 123.913V125.109Z" fill="#F5F5F5"/>
<path d="M179.872 127.823L279.443 127.823V126.627L179.872 126.627V127.823Z" fill="#F5F5F5"/>
<path d="M179.872 130.538H279.443V129.342H179.872V130.538Z" fill="#F5F5F5"/>
<path d="M179.872 133.252H279.443V132.056H179.872V133.252Z" fill="#F5F5F5"/>
<path d="M179.872 135.967H279.443V134.771H179.872V135.967Z" fill="#F5F5F5"/>
<path d="M179.872 138.681H279.443V137.485H179.872V138.681Z" fill="#F5F5F5"/>
<path d="M69.384 297.333H164.562L164.562 82.9206H69.384L69.384 297.333Z" fill="#EBEBEB"/>
<path d="M160.971 293.311L160.971 86.9419L72.9739 86.9419L72.9739 293.311H160.971Z" fill="#FAFAFA"/>
<path d="M115.961 295.322H117.984L117.984 85.9092H115.961L115.961 295.322Z" fill="#F5F5F5"/>
<path d="M67.187 90.2214L166.758 90.2214V80.1304L67.187 80.1304V90.2214Z" fill="#E0E0E0"/>
<path d="M67.187 92.5347L166.758 92.5347V91.3387L67.187 91.3387V92.5347Z" fill="#F5F5F5"/>
<path d="M67.187 95.2498L166.758 95.2498V94.0538L67.187 94.0538V95.2498Z" fill="#F5F5F5"/>
<path d="M67.187 97.9638L166.758 97.9638V96.7678L67.187 96.7678V97.9638Z" fill="#F5F5F5"/>
<path d="M67.187 100.679L166.758 100.679V99.4828L67.187 99.4828V100.679Z" fill="#F5F5F5"/>
<path d="M67.187 103.393L166.758 103.393V102.197L67.187 102.197V103.393Z" fill="#F5F5F5"/>
<path d="M67.187 106.108L166.758 106.108V104.912L67.187 104.912V106.108Z" fill="#F5F5F5"/>
<path d="M67.187 108.822L166.758 108.822V107.626L67.187 107.626V108.822Z" fill="#F5F5F5"/>
<path d="M67.187 111.537L166.758 111.537V110.341L67.187 110.341V111.537Z" fill="#F5F5F5"/>
<path d="M67.187 114.251L166.758 114.251V113.055L67.187 113.055V114.251Z" fill="#F5F5F5"/>
<path d="M67.187 116.965L166.758 116.965V115.769L67.187 115.769V116.965Z" fill="#F5F5F5"/>
<path d="M67.187 119.68L166.758 119.68V118.484L67.187 118.484V119.68Z" fill="#F5F5F5"/>
<path d="M67.187 122.394L166.758 122.394V121.198L67.187 121.198V122.394Z" fill="#F5F5F5"/>
<path d="M67.187 125.109L166.758 125.109V123.913L67.187 123.913V125.109Z" fill="#F5F5F5"/>
<path d="M67.187 127.823L166.758 127.823V126.627L67.187 126.627V127.823Z" fill="#F5F5F5"/>
<path d="M67.187 130.538H166.758V129.342H67.187V130.538Z" fill="#F5F5F5"/>
<path d="M67.187 133.252H166.758V132.056H67.187V133.252Z" fill="#F5F5F5"/>
<path d="M67.187 135.967H166.758V134.771H67.187V135.967Z" fill="#F5F5F5"/>
<path d="M67.187 138.681H166.758V137.485H67.187V138.681Z" fill="#F5F5F5"/>
<path d="M432.812 173.953V80.8871L313.047 80.8871V173.953L432.812 173.953Z" fill="#E0E0E0"/>
<path d="M431.153 82.547H314.708V172.293H431.153V82.547Z" fill="#EBEBEB"/>
<path d="M374.884 98.759V111.274" stroke="#E0E0E0" stroke-width="1.0351" stroke-miterlimit="10"/>
<path d="M403.343 151.563V111.274H350.518V134.385" stroke="#E0E0E0" stroke-width="1.0351" stroke-miterlimit="10"/>
<path d="M364.186 146.685V134.385H335.146V147.115" stroke="#E0E0E0" stroke-width="1.0351" stroke-miterlimit="10"/>
<path d="M361.527 103.357H388.241V94.1604H361.527V103.357Z" fill="#F5F5F5"/>
<path d="M337.393 126.217H362.855V116.227H337.393V126.217Z" fill="#F5F5F5"/>
<path d="M355.442 151.839H372.931V141.533H355.442V151.839Z" fill="#F5F5F5"/>
<path d="M325.783 151.029H344.511V143.201H325.783V151.029Z" fill="#F5F5F5"/>
<path d="M386.705 131.689H415.632V118.342H386.705V131.689Z" fill="#F5F5F5"/>
<path d="M394.105 156.44H412.579V146.685H394.105V156.44Z" fill="#F5F5F5"/>
<path d="M374.89 115.59L378.878 111.601L374.89 107.612L370.901 111.601L374.89 115.59Z" fill="#F5F5F5"/>
<path d="M350.522 138.373L354.511 134.384L350.522 130.395L346.533 134.384L350.522 138.373Z" fill="#F5F5F5"/>
<path d="M376.831 332.316C376.844 331.907 378.222 291.247 384.836 284.815C391.269 278.562 398.652 284.582 398.962 284.841L399.625 284.046C399.542 283.975 391.21 277.174 384.114 284.072C377.203 290.792 375.851 330.591 375.797 332.282L376.831 332.316Z" fill="#E0E0E0"/>
<path d="M376.264 340.307C376.311 339.821 380.784 291.494 363.135 271.24L362.355 271.919C379.711 291.838 375.28 339.725 375.234 340.206L376.264 340.307Z" fill="#E0E0E0"/>
<path d="M376.916 335.195L377.949 335.126C377.913 334.578 374.495 280.186 387.441 268.278L386.74 267.516C373.432 279.758 376.767 332.937 376.916 335.195Z" fill="#E0E0E0"/>
<path d="M375.231 335.164L376.266 335.156C376.253 333.658 375.839 298.416 365.828 292.679C363.603 291.402 361.424 291.19 359.351 292.047C353.298 294.551 350.298 305.324 350.173 305.781L351.172 306.054C351.201 305.947 354.163 295.313 359.748 293.004C361.509 292.277 363.381 292.469 365.314 293.577C374.813 299.021 375.228 334.804 375.231 335.164Z" fill="#E0E0E0"/>
<path d="M379.129 335.19L380.162 335.131C380.146 334.853 378.652 307.282 386.093 297.567C387.896 295.214 389.853 294.092 391.921 294.236C396.796 294.577 400.885 301.711 400.925 301.783L401.827 301.274C401.65 300.961 397.426 293.584 391.995 293.204C389.565 293.031 387.301 294.29 385.272 296.938C377.597 306.957 379.063 334.043 379.129 335.19Z" fill="#E0E0E0"/>
<path d="M377.498 338.94C377.701 336.265 382.362 273.311 374.16 262.217L373.328 262.832C381.303 273.619 376.515 338.21 376.466 338.861L377.498 338.94Z" fill="#E0E0E0"/>
<path d="M357.121 298.428C357.121 298.428 362.042 300.242 360.579 304.524C359.116 308.807 343.557 315.855 343.557 315.855C343.557 315.855 337.041 309.882 343.025 300.168C349.008 290.455 356.988 295.364 357.121 298.428Z" fill="#EBEBEB"/>
<path d="M378.511 290.276C378.511 290.276 373.271 290.057 372.974 294.572C372.676 299.088 384.325 311.581 384.325 311.581C384.325 311.581 392.638 308.576 390.852 297.307C389.067 286.039 379.814 287.499 378.511 290.276Z" fill="#EBEBEB"/>
<path d="M382.948 268.66C382.948 268.66 379.455 268.285 379.736 266.157C380.017 264.029 393.316 258.553 401.162 267.408C401.162 267.408 396.138 276.038 388.875 276.151C381.612 276.264 382.948 268.66 382.948 268.66Z" fill="#EBEBEB"/>
<path d="M376.438 263.493C376.438 263.493 379.601 265.022 380.488 263.068C381.375 261.113 372.985 249.432 361.642 252.798C361.642 252.798 361.341 262.78 367.445 266.716C373.549 270.652 376.438 263.493 376.438 263.493Z" fill="#EBEBEB"/>
<path d="M392.978 296.707C392.978 296.707 390.567 294.76 393.169 293.81C395.771 292.86 408.538 293.13 408.671 305.776C408.671 305.776 393.802 308.247 391.961 303.43C390.12 298.613 392.978 296.707 392.978 296.707Z" fill="#EBEBEB"/>
<path d="M362.657 268.343C362.657 268.343 365.068 266.396 362.466 265.446C359.864 264.496 347.097 264.766 346.964 277.412C346.964 277.412 361.833 279.883 363.674 275.066C365.514 270.249 362.657 268.343 362.657 268.343Z" fill="#EBEBEB"/>
<path d="M370.517 278.53C370.517 278.53 370.729 276.164 368.819 277.091C366.909 278.019 360.253 285.199 367.152 292.012C367.152 292.012 376.439 285.134 374.765 281.552C373.091 277.971 370.517 278.53 370.517 278.53Z" fill="#EBEBEB"/>
<path d="M395.133 281.902C395.133 281.902 393.692 280.013 395.802 279.779C397.913 279.545 407.372 282.07 405.169 291.513C405.169 291.513 393.645 290.647 393.151 286.724C392.658 282.802 395.133 281.902 395.133 281.902Z" fill="#EBEBEB"/>
<path d="M356.201 370.216H395.741L400.006 326.926H351.935L356.201 370.216Z" fill="#F0F0F0"/>
<path d="M349.824 331.702H402.117V322.149H349.824V331.702Z" fill="#E6E6E6"/>
<path d="M250 427.561C357.082 427.561 443.889 422.492 443.889 416.238C443.889 409.984 357.082 404.915 250 404.915C142.918 404.915 56.111 409.984 56.111 416.238C56.111 422.492 142.918 427.561 250 427.561Z" fill="#F5F5F5"/>
<path d="M379.941 163.857C391.456 152.342 391.456 133.672 379.941 122.157C368.426 110.643 349.757 110.643 338.242 122.157C326.727 133.672 326.727 152.342 338.242 163.857C349.757 175.371 368.426 175.371 379.941 163.857Z" fill="#E4897B"/>
<path opacity="0.5" d="M379.941 163.857C391.456 152.342 391.456 133.672 379.941 122.157C368.426 110.643 349.757 110.643 338.242 122.157C326.727 133.672 326.727 152.342 338.242 163.857C349.757 175.371 368.426 175.371 379.941 163.857Z" fill="white"/>
<path d="M374.455 122.054V157.754L368.24 163.957H343.734V122.054H374.455Z" fill="#263238"/>
<path opacity="0.9" d="M374.455 122.054V157.754L368.24 163.957H343.734V122.054H374.455Z" fill="white"/>
<path opacity="0.2" d="M374.455 157.754L368.24 163.957V157.754H374.455Z" fill="black"/>
<g opacity="0.2">
<path d="M370.753 126.895H350.967V128.072H370.753V126.895Z" fill="black"/>
<path d="M370.753 129.843H347.436V131.02H370.753V129.843Z" fill="black"/>
<path d="M370.753 132.793H347.436V133.97H370.753V132.793Z" fill="black"/>
<path d="M355.451 135.742H347.436V136.919H355.451V135.742Z" fill="black"/>
<path d="M370.753 138.691H350.967V139.868H370.753V138.691Z" fill="black"/>
<path d="M370.753 141.639H347.436V142.816H370.753V141.639Z" fill="black"/>
<path d="M370.753 144.589H347.436V145.766H370.753V144.589Z" fill="black"/>
<path d="M370.753 147.538H347.436V148.715H370.753V147.538Z" fill="black"/>
<path d="M370.753 150.487H347.436V151.664H370.753V150.487Z" fill="black"/>
<path d="M362.514 153.436H347.436V154.613H362.514V153.436Z" fill="black"/>
</g>
<path d="M375.332 114.882C390.864 123.849 396.186 143.71 387.218 159.242C378.251 174.774 358.39 180.096 342.857 171.128C327.325 162.161 322.003 142.3 330.971 126.768C339.939 111.236 359.8 105.915 375.332 114.882Z" stroke="#E4897B" stroke-width="1.0415" stroke-miterlimit="10" stroke-dasharray="12.88 5.37 2.15 12.88 5.37 2.15"/>
<path d="M358.43 175.477V183.008L333.319 208.12" stroke="#E4897B" stroke-width="1.0415" stroke-miterlimit="10"/>
<path d="M333.319 211.046C332.511 211.854 331.201 211.854 330.393 211.046C329.585 210.238 329.585 208.928 330.393 208.12C331.201 207.312 332.511 207.312 333.319 208.12C334.127 208.928 334.127 210.238 333.319 211.046Z" stroke="#E4897B" stroke-width="1.0415" stroke-miterlimit="10"/>
<path d="M184.393 118.634C195.908 107.119 195.908 88.4498 184.393 76.9349C172.878 65.4201 154.209 65.4201 142.694 76.9349C131.179 88.4498 131.179 107.119 142.694 118.634C154.209 130.149 172.878 130.149 184.393 118.634Z" fill="#F3EA07"/>
<path opacity="0.5" d="M184.393 118.634C195.908 107.119 195.908 88.4498 184.393 76.9349C172.878 65.4201 154.209 65.4201 142.694 76.9349C131.179 88.4498 131.179 107.119 142.694 118.634C154.209 130.149 172.878 130.149 184.393 118.634Z" fill="white"/>
<path d="M179.782 69.66C195.314 78.627 200.636 98.488 191.668 114.02C182.701 129.552 162.84 134.874 147.308 125.906C131.776 116.938 126.454 97.078 135.421 81.545C144.389 66.015 164.25 60.693 179.782 69.66Z" stroke="#F3EA07" stroke-width="1.0415" stroke-miterlimit="10" stroke-dasharray="12.88 5.37 2.15 12.88 5.37 2.15"/>
<path d="M165.008 145.971C164.2 146.779 162.89 146.779 162.081 145.971C161.273 145.163 161.273 143.853 162.081 143.045C162.889 142.237 164.199 142.237 165.008 143.045C165.816 143.852 165.816 145.163 165.008 145.971Z" stroke="#F3EA07" stroke-width="1.0415" stroke-miterlimit="10"/>
<path d="M163.545 142.438V130.216" stroke="#F3EA07" stroke-width="1.0415" stroke-miterlimit="10"/>
<path opacity="0.9" d="M170.902 111.564C170.902 115.469 167.736 118.636 163.831 118.636C160.28 118.636 157.353 116.032 156.842 112.637C156.78 112.293 156.748 111.929 156.748 111.564C156.748 107.669 159.872 104.524 163.757 104.482H163.83C167.736 104.482 170.902 107.648 170.902 111.564Z" fill="#F4DC05"/>
<path opacity="0.1" d="M170.104 111.56C170.104 115.027 167.293 117.838 163.826 117.838C160.359 117.838 157.547 115.027 157.547 111.56C157.547 108.093 160.358 105.282 163.826 105.282C167.293 105.281 170.104 108.092 170.104 111.56Z" fill="black"/>
<path d="M163.674 114.079V107.462H164.098V114.079H163.674ZM165.101 109.447C165.07 109.185 164.944 108.982 164.724 108.837C164.503 108.692 164.233 108.62 163.912 108.62C163.678 108.62 163.473 108.658 163.297 108.734C163.123 108.81 162.987 108.914 162.889 109.047C162.792 109.179 162.744 109.33 162.744 109.499C162.744 109.64 162.778 109.762 162.845 109.863C162.914 109.963 163.002 110.047 163.108 110.114C163.215 110.179 163.327 110.234 163.444 110.277C163.562 110.318 163.669 110.352 163.767 110.378L164.305 110.522C164.443 110.559 164.596 110.609 164.765 110.672C164.936 110.736 165.099 110.823 165.254 110.933C165.41 111.042 165.54 111.181 165.641 111.352C165.743 111.523 165.794 111.732 165.794 111.98C165.794 112.266 165.719 112.525 165.569 112.755C165.421 112.986 165.204 113.17 164.918 113.306C164.633 113.442 164.288 113.51 163.881 113.51C163.502 113.51 163.174 113.449 162.896 113.327C162.621 113.204 162.404 113.034 162.245 112.815C162.088 112.596 162 112.342 161.979 112.052H162.641C162.658 112.252 162.725 112.418 162.842 112.549C162.961 112.678 163.111 112.774 163.292 112.838C163.475 112.9 163.671 112.931 163.881 112.931C164.126 112.931 164.346 112.892 164.54 112.812C164.735 112.731 164.889 112.619 165.003 112.476C165.117 112.332 165.173 112.163 165.173 111.97C165.173 111.794 165.124 111.651 165.026 111.541C164.928 111.43 164.799 111.341 164.638 111.272C164.478 111.203 164.305 111.143 164.119 111.091L163.468 110.905C163.054 110.786 162.727 110.616 162.485 110.396C162.244 110.175 162.124 109.887 162.124 109.53C162.124 109.234 162.204 108.975 162.364 108.754C162.526 108.532 162.743 108.36 163.015 108.238C163.289 108.114 163.595 108.051 163.933 108.051C164.274 108.051 164.577 108.113 164.843 108.235C165.108 108.356 165.318 108.521 165.473 108.731C165.63 108.941 165.713 109.18 165.721 109.447H165.101Z" fill="#F4DC05"/>
<path opacity="0.1" d="M163.758 104.482C163.695 105.076 163.581 105.648 163.404 106.211C162.446 109.304 159.967 111.741 156.842 112.637C156.78 112.293 156.748 111.929 156.748 111.564C156.748 107.669 159.873 104.524 163.758 104.482Z" fill="black"/>
<path opacity="0.9" d="M163.831 100.941C163.831 101.93 163.685 102.889 163.404 103.795C162.185 107.732 158.509 110.606 154.166 110.606C148.824 110.606 144.501 106.273 144.501 100.941C144.501 95.609 148.823 91.276 154.166 91.276C155.395 91.276 156.562 91.505 157.645 91.922C161.258 93.317 163.831 96.838 163.831 100.941Z" fill="#F4DC05"/>
<path opacity="0.1" d="M162.734 100.941C162.734 105.674 158.897 109.512 154.163 109.512C149.43 109.512 145.593 105.675 145.593 100.941C145.593 96.208 149.43 92.371 154.163 92.371C158.897 92.37 162.734 96.207 162.734 100.941Z" fill="black"/>
<path d="M153.958 104.824V95.7918H154.536V104.824H153.958ZM155.905 98.5014C155.863 98.1439 155.691 97.8664 155.39 97.6688C155.089 97.4712 154.72 97.3724 154.282 97.3724C153.962 97.3724 153.682 97.4242 153.442 97.5277C153.205 97.6312 153.019 97.7735 152.885 97.9546C152.753 98.1357 152.687 98.3415 152.687 98.572C152.687 98.7649 152.733 98.9307 152.825 99.0695C152.919 99.2059 153.039 99.32 153.185 99.4117C153.331 99.5011 153.484 99.5752 153.644 99.634C153.803 99.6904 153.95 99.7363 154.085 99.7716L154.818 99.9692C155.007 100.019 155.216 100.087 155.446 100.174C155.679 100.261 155.902 100.38 156.113 100.53C156.327 100.678 156.504 100.869 156.642 101.102C156.781 101.335 156.851 101.62 156.851 101.959C156.851 102.349 156.748 102.702 156.544 103.017C156.341 103.333 156.045 103.583 155.655 103.769C155.266 103.955 154.795 104.048 154.24 104.048C153.722 104.048 153.274 103.964 152.896 103.797C152.519 103.63 152.223 103.397 152.006 103.099C151.792 102.8 151.671 102.453 151.643 102.058H152.546C152.57 102.331 152.662 102.556 152.821 102.735C152.984 102.912 153.188 103.043 153.435 103.13C153.685 103.215 153.953 103.257 154.24 103.257C154.574 103.257 154.874 103.203 155.139 103.095C155.405 102.985 155.616 102.832 155.771 102.636C155.926 102.439 156.004 102.208 156.004 101.945C156.004 101.705 155.937 101.51 155.803 101.359C155.669 101.209 155.492 101.086 155.274 100.992C155.055 100.898 154.818 100.816 154.564 100.745L153.675 100.491C153.111 100.329 152.664 100.097 152.335 99.7963C152.005 99.4952 151.841 99.1012 151.841 98.6143C151.841 98.2098 151.95 97.857 152.169 97.5559C152.39 97.2525 152.686 97.0173 153.058 96.8503C153.432 96.6809 153.849 96.5962 154.31 96.5962C154.776 96.5962 155.19 96.6797 155.552 96.8467C155.914 97.0114 156.201 97.2372 156.413 97.5241C156.627 97.8111 156.74 98.1369 156.752 98.5014H155.905Z" fill="#F4DC05"/>
<path opacity="0.1" d="M163.831 100.941C163.831 101.93 163.685 102.889 163.404 103.795C159.894 101.67 157.551 97.806 157.551 93.401C157.551 92.901 157.582 92.412 157.645 91.922C161.258 93.317 163.831 96.838 163.831 100.941Z" fill="black"/>
<path opacity="0.9" d="M182.459 91.203C182.459 97.916 177.017 103.357 170.305 103.357C163.592 103.357 158.151 97.915 158.151 91.203C158.151 84.49 163.593 79.048 170.305 79.048C177.017 79.049 182.459 84.49 182.459 91.203Z" fill="#F4DC05"/>
<path opacity="0.1" d="M181.085 91.203C181.085 97.157 176.258 101.984 170.304 101.984C164.35 101.984 159.523 97.157 159.523 91.203C159.523 85.249 164.35 80.422 170.304 80.422C176.258 80.422 181.085 85.249 181.085 91.203Z" fill="black"/>
<path d="M170.045 95.509V84.1475H170.773V95.509H170.045ZM172.495 87.556C172.442 87.1062 172.226 86.7571 171.847 86.5086C171.468 86.26 171.004 86.1358 170.454 86.1358C170.051 86.1358 169.699 86.2009 169.397 86.3311C169.099 86.4612 168.865 86.6402 168.696 86.8681C168.53 87.0959 168.448 87.3548 168.448 87.6447C168.448 87.8873 168.505 88.0959 168.621 88.2705C168.739 88.4421 168.89 88.5856 169.073 88.701C169.257 88.8134 169.449 88.9066 169.65 88.9806C169.852 89.0516 170.036 89.1093 170.205 89.1537L171.128 89.4022C171.365 89.4644 171.628 89.5502 171.918 89.6596C172.211 89.7691 172.491 89.9185 172.757 90.1079C173.026 90.2943 173.248 90.5339 173.423 90.8268C173.597 91.1198 173.685 91.4793 173.685 91.9053C173.685 92.3965 173.556 92.8403 173.298 93.2367C173.044 93.6332 172.671 93.9483 172.18 94.1821C171.692 94.4158 171.099 94.5327 170.4 94.5327C169.749 94.5327 169.186 94.4276 168.709 94.2176C168.236 94.0075 167.863 93.7146 167.591 93.3388C167.322 92.9631 167.169 92.5266 167.134 92.0296H168.27C168.3 92.3728 168.415 92.6568 168.616 92.8817C168.82 93.1036 169.078 93.2693 169.388 93.3788C169.702 93.4853 170.039 93.5385 170.4 93.5385C170.821 93.5385 171.198 93.4705 171.532 93.3344C171.866 93.1953 172.131 93.003 172.327 92.7574C172.522 92.5089 172.619 92.2189 172.619 91.8876C172.619 91.5858 172.535 91.3402 172.366 91.1508C172.198 90.9615 171.976 90.8076 171.701 90.6893C171.426 90.5709 171.128 90.4674 170.809 90.3786L169.69 90.0591C168.98 89.8549 168.418 89.5635 168.004 89.1848C167.59 88.806 167.382 88.3104 167.382 87.698C167.382 87.1891 167.52 86.7453 167.795 86.3666C168.073 85.9849 168.446 85.689 168.914 85.4789C169.384 85.2659 169.909 85.1594 170.489 85.1594C171.075 85.1594 171.596 85.2644 172.051 85.4745C172.507 85.6816 172.868 85.9656 173.134 86.3266C173.403 86.6876 173.546 87.0974 173.56 87.556H172.495Z" fill="#F4DC05"/>
<path d="M430.347 217.476H344.648V415.891H430.347V217.476Z" fill="#1C0E0C"/>
<path opacity="0.5" d="M430.347 217.476H344.648V415.891H430.347V217.476Z" fill="white"/>
<path opacity="0.2" d="M344.648 217.476V415.891H393.54V217.476H344.648ZM390.251 408.893H347.813V373.944H390.251V408.893ZM390.251 370.677H347.813V335.728H390.251V370.677ZM390.251 332.462H347.813V297.513H390.251V332.462ZM390.251 294.246H347.813V259.297H390.251V294.246ZM390.251 256.031H347.813V221.082H390.251V256.031Z" fill="white"/>
<path opacity="0.2" d="M390.249 259.297H347.813V278.964H390.249V259.297Z" fill="black"/>
<path opacity="0.2" d="M390.251 290.26L344.648 323.633L344.243 291.771L390.251 290.26Z" fill="black"/>
<path d="M361.559 236.527C361.031 236.527 360.604 236.955 360.604 237.483V241.094H361.618V240.367C361.618 239.839 362.046 239.412 362.573 239.412H372.868C373.396 239.412 373.824 239.84 373.824 240.367V241.094H374.837V237.483C374.837 236.955 374.409 236.527 373.881 236.527H361.559Z" fill="#1C0E0C"/>
<path opacity="0.2" d="M373.874 228.853H361.565V234.261H373.874V228.853Z" fill="white"/>
<path d="M361.559 313.029C361.031 313.029 360.604 313.457 360.604 313.985V317.596H361.618V316.869C361.618 316.341 362.046 315.914 362.573 315.914H372.868C373.396 315.914 373.824 316.342 373.824 316.869V317.596H374.837V313.985C374.837 313.457 374.409 313.029 373.881 313.029H361.559Z" fill="#1C0E0C"/>
<path opacity="0.2" d="M373.874 305.355H361.565V310.763H373.874V305.355Z" fill="white"/>
<path d="M361.559 351.038C361.031 351.038 360.604 351.466 360.604 351.994V355.605H361.618V354.878C361.618 354.35 362.046 353.922 362.573 353.922H372.868C373.396 353.922 373.824 354.35 373.824 354.878V355.605H374.837V351.994C374.837 351.466 374.409 351.038 373.881 351.038H361.559Z" fill="#1C0E0C"/>
<path opacity="0.2" d="M373.874 343.364H361.565V348.772H373.874V343.364Z" fill="white"/>
<path d="M361.559 388.424C361.031 388.424 360.604 388.852 360.604 389.38V392.991H361.618V392.264C361.618 391.736 362.046 391.309 362.573 391.309H372.868C373.396 391.309 373.824 391.737 373.824 392.264V392.991H374.837V389.38C374.837 388.852 374.409 388.424 373.881 388.424H361.559Z" fill="#1C0E0C"/>
<path opacity="0.2" d="M373.874 380.75H361.565V386.158H373.874V380.75Z" fill="white"/>
<path d="M390.247 263.636V287.132H357.43V265.209C357.43 264.772 357.597 264.386 357.878 264.105C358.159 263.813 358.565 263.636 359.003 263.636H375.99C376.636 263.636 377.219 263.23 377.448 262.626L377.927 261.376L377.948 261.324C378.042 261.074 378.292 260.907 378.562 260.907H388.758C389.029 260.907 389.279 261.074 389.372 261.324L390.247 263.636Z" fill="#1C0E0C"/>
<path opacity="0.2" d="M387.498 264.105V287.132H357.43V265.209C357.43 264.772 357.597 264.386 357.878 264.105H373.229C373.656 264.105 374.062 263.928 374.343 263.636H375.989C376.635 263.636 377.218 263.23 377.447 262.626L377.926 261.376H385.998C386.279 261.376 386.519 261.543 386.623 261.803L387.498 264.105Z" fill="black"/>
<path d="M385.503 265.284V288.78H352.686V266.857C352.686 266.42 352.853 266.034 353.134 265.753C353.415 265.461 353.821 265.284 354.259 265.284H371.246C371.892 265.284 372.475 264.878 372.704 264.274L373.183 263.024L373.204 262.972C373.298 262.722 373.548 262.555 373.818 262.555H384.014C384.285 262.555 384.535 262.722 384.628 262.972L385.503 265.284Z" fill="#1C0E0C"/>
<path opacity="0.2" d="M382.754 265.753V288.78H352.686V266.857C352.686 266.42 352.853 266.034 353.134 265.753H368.485C368.912 265.753 369.319 265.576 369.6 265.284H371.246C371.892 265.284 372.475 264.878 372.704 264.274L373.183 263.024H381.254C381.535 263.024 381.775 263.191 381.879 263.451L382.754 265.753Z" fill="black"/>
<path d="M380.759 266.932V290.428H347.942V268.505C347.942 268.068 348.109 267.682 348.39 267.401C348.671 267.109 349.077 266.932 349.515 266.932H366.502C367.148 266.932 367.731 266.526 367.96 265.922L368.439 264.672L368.46 264.62C368.554 264.37 368.803 264.203 369.074 264.203H379.27C379.541 264.203 379.791 264.37 379.884 264.62L380.759 266.932Z" fill="#1C0E0C"/>
<path opacity="0.2" d="M378.009 267.401V290.428H347.941V268.505C347.941 268.068 348.108 267.682 348.389 267.401H363.74C364.167 267.401 364.573 267.224 364.854 266.932H366.5C367.146 266.932 367.729 266.526 367.958 265.922L368.437 264.672H376.509C376.79 264.672 377.03 264.839 377.134 265.099L378.009 267.401Z" fill="black"/>
<path d="M376.014 268.581V292.077H343.197V270.154C343.197 269.717 343.364 269.331 343.645 269.05C343.926 268.758 344.332 268.581 344.77 268.581H361.757C362.402 268.581 362.986 268.175 363.215 267.571L363.694 266.321L363.715 266.269C363.809 266.019 364.059 265.852 364.329 265.852H374.525C374.796 265.852 375.046 266.019 375.139 266.269L376.014 268.581Z" fill="#1C0E0C"/>
<path opacity="0.2" d="M373.265 269.049V292.076H343.197V270.153C343.197 269.716 343.364 269.33 343.645 269.049H358.996C359.423 269.049 359.829 268.872 360.111 268.58H361.757C362.402 268.58 362.986 268.174 363.215 267.57L363.694 266.32H371.765C372.046 266.32 372.286 266.487 372.39 266.747L373.265 269.049Z" fill="black"/>
<path d="M371.27 270.228V293.724H338.453V271.801C338.453 271.364 338.62 270.978 338.901 270.697C339.182 270.405 339.588 270.228 340.026 270.228H357.012C357.658 270.228 358.241 269.822 358.47 269.218L358.949 267.968L358.97 267.916C359.063 267.666 359.313 267.499 359.584 267.499H369.78C370.051 267.499 370.301 267.666 370.394 267.916L371.27 270.228Z" fill="#1C0E0C"/>
<path opacity="0.2" d="M368.52 270.697V293.724H338.452V271.801C338.452 271.364 338.619 270.978 338.9 270.697H354.251C354.678 270.697 355.084 270.52 355.365 270.228H357.011C357.657 270.228 358.24 269.822 358.469 269.218L358.948 267.968H367.02C367.301 267.968 367.541 268.135 367.645 268.395L368.52 270.697Z" fill="black"/>
<path d="M361.272 281.333L390.251 271.033V289.219L364.294 299.737L361.272 281.333Z" fill="#1C0E0C"/>
<path opacity="0.5" d="M361.272 281.333L390.251 271.033V289.219L364.294 299.737L361.272 281.333Z" fill="white"/>
<path d="M322.742 266.083L327.276 265.016H366.69L368.477 300.576L366.69 300.992L322.742 266.083Z" fill="#1C0E0C"/>
<path d="M366.69 300.992H324.253L322.742 266.083H365.179L366.69 300.992Z" fill="#1C0E0C"/>
<path opacity="0.5" d="M366.69 300.992H324.253L322.742 266.083H365.179L366.69 300.992Z" fill="white"/>
<path opacity="0.7" d="M366.69 265.016L365.179 266.083H322.742L327.276 265.016H366.69Z" fill="white"/>
<path opacity="0.4" d="M366.69 265.016L368.477 300.576L366.69 300.992L365.179 266.083L366.69 265.016Z" fill="white"/>
<path d="M337.52 282.187C336.992 282.187 336.587 282.621 336.614 283.156L336.802 286.817H337.816L337.778 286.08C337.751 285.545 338.156 285.111 338.684 285.111H348.979C349.507 285.111 349.957 285.545 349.984 286.08L350.022 286.817H351.035L350.847 283.156C350.82 282.621 350.369 282.187 349.842 282.187H337.52Z" fill="#1C0E0C"/>
<path opacity="0.2" d="M349.717 279.89H337.408L337.127 274.408H349.436L349.717 279.89Z" fill="white"/>
<path d="M167.503 328.832H71.533C67.371 328.832 63.998 325.458 63.998 321.297V165.126C63.998 160.965 67.371 157.591 71.533 157.591H167.503C171.664 157.591 175.038 160.964 175.038 165.126V321.298C175.038 325.459 171.665 328.832 167.503 328.832Z" fill="black"/>
<g opacity="0.2">
<path d="M63.998 203.326V320.985C63.998 325.319 67.511 328.832 71.845 328.832H167.19C171.524 328.832 175.038 325.319 175.038 320.985V203.326H63.998Z" fill="white"/>
</g>
<path d="M91.536 249.071H75.846C75.173 249.071 74.628 248.526 74.628 247.853V238.682C74.628 238.009 75.173 237.464 75.846 237.464H91.537C92.21 237.464 92.755 238.009 92.755 238.682V247.853C92.754 248.526 92.209 249.071 91.536 249.071Z" fill="black"/>
<path d="M115.432 249.071H99.741C99.068 249.071 98.523 248.526 98.523 247.853V238.682C98.523 238.009 99.068 237.464 99.741 237.464H115.432C116.105 237.464 116.65 238.009 116.65 238.682V247.853C116.65 248.526 116.104 249.071 115.432 249.071Z" fill="black"/>
<path d="M139.327 249.071H123.636C122.963 249.071 122.418 248.526 122.418 247.853V238.682C122.418 238.009 122.963 237.464 123.636 237.464H139.327C140 237.464 140.545 238.009 140.545 238.682V247.853C140.545 248.526 140 249.071 139.327 249.071Z" fill="black"/>
<path d="M163.222 249.071H147.531C146.858 249.071 146.313 248.526 146.313 247.853V238.682C146.313 238.009 146.858 237.464 147.531 237.464H163.222C163.895 237.464 164.44 238.009 164.44 238.682V247.853C164.44 248.526 163.895 249.071 163.222 249.071Z" fill="black"/>
<path d="M163.222 220.828H147.531C146.858 220.828 146.313 220.283 146.313 219.61V210.439C146.313 209.766 146.858 209.221 147.531 209.221H163.222C163.895 209.221 164.44 209.766 164.44 210.439V219.61C164.44 220.283 163.895 220.828 163.222 220.828Z" fill="black"/>
<path d="M138.91 220.828H123.219C122.546 220.828 122.001 220.283 122.001 219.61V210.439C122.001 209.766 122.546 209.221 123.219 209.221H138.91C139.583 209.221 140.128 209.766 140.128 210.439V219.61C140.128 220.283 139.582 220.828 138.91 220.828Z" fill="black"/>
<g opacity="0.3">
<path d="M84.214 232.285H75.814C75.141 232.285 74.596 231.74 74.596 231.067V227.104C74.596 226.431 75.141 225.886 75.814 225.886H84.214C84.887 225.886 85.432 226.431 85.432 227.104V231.067C85.432 231.74 84.886 232.285 84.214 232.285Z" fill="white"/>
</g>
<g opacity="0.3">
<path d="M100.016 232.285H91.616C90.943 232.285 90.398 231.74 90.398 231.067V227.104C90.398 226.431 90.943 225.886 91.616 225.886H100.016C100.689 225.886 101.234 226.431 101.234 227.104V231.067C101.233 231.74 100.688 232.285 100.016 232.285Z" fill="white"/>
</g>
<g opacity="0.3">
<path d="M115.817 232.285H107.417C106.744 232.285 106.199 231.74 106.199 231.067V227.104C106.199 226.431 106.744 225.886 107.417 225.886H115.817C116.49 225.886 117.035 226.431 117.035 227.104V231.067C117.035 231.74 116.49 232.285 115.817 232.285Z" fill="white"/>
</g>
<g opacity="0.3">
<path d="M131.619 232.285H123.219C122.546 232.285 122.001 231.74 122.001 231.067V227.104C122.001 226.431 122.546 225.886 123.219 225.886H131.619C132.292 225.886 132.837 226.431 132.837 227.104V231.067C132.837 231.74 132.292 232.285 131.619 232.285Z" fill="white"/>
</g>
<g opacity="0.3">
<path d="M147.421 232.285H139.021C138.348 232.285 137.803 231.74 137.803 231.067V227.104C137.803 226.431 138.348 225.886 139.021 225.886H147.421C148.094 225.886 148.639 226.431 148.639 227.104V231.067C148.639 231.74 148.093 232.285 147.421 232.285Z" fill="white"/>
</g>
<g opacity="0.3">
<path d="M163.222 232.285H154.822C154.149 232.285 153.604 231.74 153.604 231.067V227.104C153.604 226.431 154.149 225.886 154.822 225.886H163.222C163.895 225.886 164.44 226.431 164.44 227.104V231.067C164.44 231.74 163.895 232.285 163.222 232.285Z" fill="white"/>
</g>
<g opacity="0.2">
<path d="M80.014 209.222H74.596V220.828H80.014V209.222Z" fill="black"/>
</g>
<g opacity="0.2">
<path d="M86.4 209.222H80.982V220.828H86.4V209.222Z" fill="black"/>
</g>
<g opacity="0.2">
<path d="M92.786 209.222H87.368V220.828H92.786V209.222Z" fill="black"/>
</g>
<g opacity="0.2">
<path d="M99.173 209.222H93.755V220.828H99.173V209.222Z" fill="black"/>
</g>
<g opacity="0.2">
<path d="M105.559 209.222H100.141V220.828H105.559V209.222Z" fill="black"/>
</g>
<g opacity="0.2">
<path d="M111.945 209.222H106.527V220.828H111.945V209.222Z" fill="black"/>
</g>
<path d="M91.537 265.215H75.846C75.173 265.215 74.628 264.67 74.628 263.997V254.826C74.628 254.153 75.173 253.608 75.846 253.608H91.537C92.21 253.608 92.755 254.153 92.755 254.826V263.997C92.754 264.67 92.209 265.215 91.537 265.215Z" fill="black"/>
<path d="M115.432 265.215H99.741C99.068 265.215 98.523 264.67 98.523 263.997V254.826C98.523 254.153 99.068 253.608 99.741 253.608H115.432C116.105 253.608 116.65 254.153 116.65 254.826V263.997C116.65 264.67 116.104 265.215 115.432 265.215Z" fill="black"/>
<path d="M139.327 265.215H123.636C122.963 265.215 122.418 264.67 122.418 263.997V254.826C122.418 254.153 122.963 253.608 123.636 253.608H139.327C140 253.608 140.545 254.153 140.545 254.826V263.997C140.545 264.67 140 265.215 139.327 265.215Z" fill="black"/>
<path d="M163.222 265.215H147.531C146.858 265.215 146.313 264.67 146.313 263.997V254.826C146.313 254.153 146.858 253.608 147.531 253.608H163.222C163.895 253.608 164.44 254.153 164.44 254.826V263.997C164.44 264.67 163.895 265.215 163.222 265.215Z" fill="black"/>
<path d="M91.537 281.359H75.846C75.173 281.359 74.628 280.814 74.628 280.141V270.97C74.628 270.297 75.173 269.752 75.846 269.752H91.537C92.21 269.752 92.755 270.297 92.755 270.97V280.141C92.754 280.814 92.209 281.359 91.537 281.359Z" fill="black"/>
<path d="M115.432 281.359H99.741C99.068 281.359 98.523 280.814 98.523 280.141V270.97C98.523 270.297 99.068 269.752 99.741 269.752H115.432C116.105 269.752 116.65 270.297 116.65 270.97V280.141C116.65 280.814 116.104 281.359 115.432 281.359Z" fill="black"/>
<path d="M139.327 281.359H123.636C122.963 281.359 122.418 280.814 122.418 280.141V270.97C122.418 270.297 122.963 269.752 123.636 269.752H139.327C140 269.752 140.545 270.297 140.545 270.97V280.141C140.545 280.814 140 281.359 139.327 281.359Z" fill="black"/>
<path d="M163.222 281.359H147.531C146.858 281.359 146.313 280.814 146.313 280.141V270.97C146.313 270.297 146.858 269.752 147.531 269.752H163.222C163.895 269.752 164.44 270.297 164.44 270.97V280.141C164.44 280.814 163.895 281.359 163.222 281.359Z" fill="black"/>
<path d="M91.537 297.503H75.846C75.173 297.503 74.628 296.958 74.628 296.285V287.114C74.628 286.442 75.173 285.896 75.846 285.896H91.537C92.21 285.896 92.755 286.441 92.755 287.114V296.285C92.754 296.958 92.209 297.503 91.537 297.503Z" fill="black"/>
<path d="M115.432 297.503H99.741C99.068 297.503 98.523 296.958 98.523 296.285V287.114C98.523 286.442 99.068 285.896 99.741 285.896H115.432C116.105 285.896 116.65 286.441 116.65 287.114V296.285C116.65 296.958 116.104 297.503 115.432 297.503Z" fill="black"/>
<path d="M139.327 297.503H123.636C122.963 297.503 122.418 296.958 122.418 296.285V287.114C122.418 286.442 122.963 285.896 123.636 285.896H139.327C140 285.896 140.545 286.441 140.545 287.114V296.285C140.545 296.958 140 297.503 139.327 297.503Z" fill="black"/>
<path d="M91.537 313.647H75.846C75.173 313.647 74.628 313.102 74.628 312.429V303.258C74.628 302.585 75.173 302.04 75.846 302.04H91.537C92.21 302.04 92.755 302.585 92.755 303.258V312.429C92.754 313.102 92.209 313.647 91.537 313.647Z" fill="black"/>
<path d="M115.432 313.647H99.741C99.068 313.647 98.523 313.102 98.523 312.429V303.258C98.523 302.585 99.068 302.04 99.741 302.04H115.432C116.105 302.04 116.65 302.585 116.65 303.258V312.429C116.65 313.102 116.104 313.647 115.432 313.647Z" fill="black"/>
<path d="M139.327 313.647H123.636C122.963 313.647 122.418 313.102 122.418 312.429V303.258C122.418 302.585 122.963 302.04 123.636 302.04H139.327C140 302.04 140.545 302.585 140.545 303.258V312.429C140.545 313.102 140 313.647 139.327 313.647Z" fill="black"/>
<path d="M163.172 285.897H147.582C146.881 285.897 146.313 286.465 146.313 287.165V303.309V306.65V312.378C146.313 313.079 146.881 313.646 147.582 313.646H163.172C163.873 313.646 164.44 313.078 164.44 312.378V306.65V303.309V287.165C164.44 286.464 163.872 285.897 163.172 285.897Z" fill="black"/>
<g opacity="0.4">
<path d="M164.44 172.433H74.596V194.5H164.44V172.433Z" fill="white"/>
</g>
<path d="M94.815 192.244V193.655H94.016V192.244C92.792 192.181 91.63 191.757 90.981 191.157L91.443 190.183C92.03 190.72 93.004 191.12 94.016 191.182V188.284C92.642 187.946 91.193 187.509 91.193 185.811C91.193 184.575 92.08 183.5 94.016 183.338V181.914H94.815V183.325C95.752 183.363 96.689 183.637 97.35 184.087L96.938 185.086C96.264 184.661 95.514 184.424 94.815 184.386V187.296C96.214 187.646 97.713 188.058 97.713 189.769C97.712 191.007 96.788 192.082 94.815 192.244ZM94.015 187.098V184.4C92.903 184.537 92.416 185.099 92.416 185.761C92.416 186.536 93.116 186.86 94.015 187.098ZM96.488 189.846C96.488 189.047 95.739 188.734 94.814 188.485V191.171C95.976 191.058 96.488 190.52 96.488 189.846Z" fill="black"/>
<path d="M101.414 183.413V192.157H100.177V184.5H98.204V183.413H101.414Z" fill="black"/>
<path d="M109.31 189.583C109.31 191.057 108.224 192.256 106 192.256C104.751 192.256 103.527 191.856 102.79 191.194L103.365 190.207C103.952 190.757 104.926 191.144 106 191.144C107.312 191.144 108.061 190.545 108.061 189.596C108.061 188.671 107.399 188.072 105.9 188.072H105.2V187.198L107.398 184.5H103.189V183.413H108.96V184.263L106.674 187.086C108.423 187.248 109.31 188.234 109.31 189.583Z" fill="black"/>
<path d="M110.451 191.37C110.451 190.87 110.838 190.52 111.3 190.52C111.75 190.52 112.124 190.87 112.124 191.37C112.124 191.869 111.749 192.231 111.3 192.231C110.838 192.231 110.451 191.869 110.451 191.37Z" fill="black"/>
<path d="M119.421 189.583C119.421 191.057 118.334 192.256 116.111 192.256C114.862 192.256 113.638 191.856 112.901 191.194L113.475 190.207C114.062 190.757 115.036 191.144 116.11 191.144C117.422 191.144 118.171 190.545 118.171 189.596C118.171 188.671 117.509 188.072 116.01 188.072H115.31V187.198L117.508 184.5H113.3V183.413H119.071V184.263L116.785 187.086C118.534 187.248 119.421 188.234 119.421 189.583Z" fill="black"/>
<path d="M127.094 187.672C127.094 190.658 125.408 192.256 122.96 192.256C122.136 192.256 121.348 192.093 120.786 191.743L121.26 190.769C121.722 191.069 122.31 191.181 122.946 191.181C124.72 191.181 125.844 190.069 125.844 187.884V187.572C125.332 188.334 124.407 188.721 123.321 188.721C121.585 188.721 120.336 187.685 120.336 186.073C120.336 184.387 121.685 183.313 123.421 183.313C125.77 183.313 127.094 184.887 127.094 187.672ZM125.558 186.011C125.558 185.112 124.833 184.325 123.472 184.325C122.335 184.325 121.548 184.987 121.548 186.024C121.548 187.048 122.31 187.71 123.534 187.71C124.733 187.71 125.558 186.973 125.558 186.011Z" fill="black"/>
<path d="M134.406 191.07V192.157H128.123V191.308L131.683 187.873C132.607 186.974 132.782 186.424 132.782 185.874C132.782 184.975 132.145 184.425 130.921 184.425C129.984 184.425 129.222 184.724 128.685 185.374L127.836 184.637C128.51 183.8 129.672 183.313 131.034 183.313C132.858 183.313 134.032 184.25 134.032 185.748C134.032 186.598 133.782 187.36 132.595 188.496L129.922 191.069H134.406V191.07Z" fill="black"/>
<path d="M135.533 191.37C135.533 190.87 135.92 190.52 136.382 190.52C136.832 190.52 137.206 190.87 137.206 191.37C137.206 191.869 136.831 192.231 136.382 192.231C135.92 192.231 135.533 191.869 135.533 191.37Z" fill="black"/>
<path d="M138.245 187.785C138.245 184.937 139.769 183.313 141.817 183.313C143.853 183.313 145.377 184.937 145.377 187.785C145.377 190.633 143.853 192.257 141.817 192.257C139.77 192.257 138.245 190.633 138.245 187.785ZM144.129 187.785C144.129 185.549 143.18 184.425 141.818 184.425C140.444 184.425 139.494 185.549 139.494 187.785C139.494 190.021 140.443 191.145 141.818 191.145C143.179 191.145 144.129 190.021 144.129 187.785Z" fill="black"/>
<path d="M146.581 187.785C146.581 184.937 148.105 183.313 150.153 183.313C152.189 183.313 153.713 184.937 153.713 187.785C153.713 190.633 152.189 192.257 150.153 192.257C148.105 192.257 146.581 190.633 146.581 187.785ZM152.464 187.785C152.464 185.549 151.515 184.425 150.153 184.425C148.779 184.425 147.83 185.549 147.83 187.785C147.83 190.021 148.779 191.145 150.153 191.145C151.515 191.145 152.464 190.021 152.464 187.785Z" fill="black"/>
<path d="M154.917 187.785C154.917 184.937 156.441 183.313 158.489 183.313C160.525 183.313 162.049 184.937 162.049 187.785C162.049 190.633 160.525 192.257 158.489 192.257C156.441 192.257 154.917 190.633 154.917 187.785ZM160.801 187.785C160.801 185.549 159.851 184.425 158.49 184.425C157.116 184.425 156.166 185.549 156.166 187.785C156.166 190.021 157.116 191.145 158.49 191.145C159.851 191.145 160.801 190.021 160.801 187.785Z" fill="black"/>
<path d="M266.228 328.456H207.318V355.972H266.228V328.456Z" fill="#FA1B1B"/>
<path opacity="0.6" d="M266.228 328.456H207.318V355.972H266.228V328.456Z" fill="white"/>
<path opacity="0.2" d="M266.228 332.576H224.083L266.228 333.812V332.576Z" fill="black"/>
<path opacity="0.2" d="M216.115 336.661L255.122 336.188L216.115 337.893V336.661Z" fill="black"/>
<path opacity="0.2" d="M266.228 341.993C265.285 342.053 225.32 342.877 225.32 342.877L266.228 344.444V341.993Z" fill="black"/>
<path opacity="0.2" d="M216.115 347.842L247.156 348.508L216.115 349.194V347.842Z" fill="black"/>
<path opacity="0.2" d="M266.228 351.039L236.169 352.137H266.228V351.039Z" fill="black"/>
<path d="M216.115 329.69V354.738H268.845V356.956H130.692V327.472H268.845V329.69H216.115Z" fill="#FA1B1B"/>
<path opacity="0.2" d="M216.115 329.69V354.738H268.845V356.956H130.692V327.472H268.845V329.69H216.115Z" fill="white"/>
<path opacity="0.2" d="M216.115 329.69V354.738H268.845V356.956H212.24V327.472H268.845V329.69H216.115Z" fill="black"/>
<path opacity="0.6" d="M202.326 337.209H158.161V347.219H202.326V337.209Z" fill="white"/>
<path opacity="0.6" d="M146.018 348.199C149.323 348.199 152.003 345.519 152.003 342.214C152.003 338.909 149.323 336.229 146.018 336.229C142.713 336.229 140.033 338.909 140.033 342.214C140.033 345.519 142.713 348.199 146.018 348.199Z" fill="white"/>
<path opacity="0.2" d="M150.248 343.503C149.536 345.839 147.066 347.156 144.729 346.444C142.393 345.732 141.076 343.261 141.788 340.925C142.5 338.589 144.97 337.272 147.307 337.984C149.643 338.696 150.96 341.167 150.248 343.503Z" fill="black"/>
<path d="M277.682 357.941H218.772V385.457H277.682V357.941Z" fill="#407BFF"/>
<path opacity="0.6" d="M277.682 357.941H218.772V385.457H277.682V357.941Z" fill="white"/>
<path opacity="0.2" d="M277.682 362.061H235.537L277.682 363.297V362.061Z" fill="black"/>
<path opacity="0.2" d="M227.569 366.145L266.576 365.672L227.569 367.377V366.145Z" fill="black"/>
<path opacity="0.2" d="M277.682 371.477C276.739 371.537 236.773 372.361 236.773 372.361L277.682 373.928V371.477Z" fill="black"/>
<path opacity="0.2" d="M227.569 377.327L258.61 377.992L227.569 378.679V377.327Z" fill="black"/>
<path opacity="0.2" d="M277.682 380.523L247.623 381.622H277.682V380.523Z" fill="black"/>
<path d="M227.569 359.175V384.222H280.299V386.441H142.146V356.956H280.299V359.175H227.569Z" fill="#263238"/>
<path opacity="0.2" d="M227.569 359.175V384.222H280.299V386.441H223.694V356.956H280.299V359.175H227.569Z" fill="black"/>
<path opacity="0.6" d="M213.78 366.694H169.615V376.704H213.78V366.694Z" fill="white"/>
<path opacity="0.6" d="M163.458 371.698C163.458 375.004 160.778 377.684 157.473 377.684C154.167 377.684 151.487 375.004 151.487 371.698C151.487 368.392 154.167 365.712 157.473 365.712C160.778 365.713 163.458 368.393 163.458 371.698Z" fill="white"/>
<path opacity="0.2" d="M161.702 372.987C160.99 375.323 158.519 376.64 156.183 375.928C153.847 375.216 152.53 372.745 153.242 370.409C153.954 368.073 156.424 366.756 158.761 367.468C161.097 368.18 162.414 370.651 161.702 372.987Z" fill="black"/>
<path d="M269.48 387.391H210.57V414.907H269.48V387.391Z" fill="#407BFF"/>
<path opacity="0.6" d="M269.48 387.391H210.57V414.907H269.48V387.391Z" fill="white"/>
<path opacity="0.2" d="M269.48 391.511H227.335L269.48 392.747V391.511Z" fill="black"/>
<path opacity="0.2" d="M219.367 395.595L258.374 395.122L219.367 396.827V395.595Z" fill="black"/>
<path opacity="0.2" d="M269.48 400.927C268.537 400.987 228.572 401.811 228.572 401.811L269.48 403.378V400.927Z" fill="black"/>
<path opacity="0.2" d="M219.367 406.777L250.408 407.442L219.367 408.129V406.777Z" fill="black"/>
<path opacity="0.2" d="M269.48 409.973L239.421 411.072H269.48V409.973Z" fill="black"/>
<path d="M219.367 388.625V413.672H272.097V415.891H133.945V386.407H272.097V388.625H219.367Z" fill="#407BFF"/>
<path opacity="0.2" d="M219.367 388.625V413.672H272.097V415.891H215.492V386.407H272.097V388.625H219.367Z" fill="black"/>
<path opacity="0.6" d="M205.578 396.144H161.413V406.154H205.578V396.144Z" fill="white"/>
<path opacity="0.6" d="M155.256 401.149C155.256 404.455 152.576 407.135 149.27 407.135C145.964 407.135 143.284 404.455 143.284 401.149C143.284 397.843 145.964 395.163 149.27 395.163C152.576 395.163 155.256 397.843 155.256 401.149Z" fill="white"/>
<path opacity="0.2" d="M153.5 402.437C152.788 404.773 150.317 406.09 147.981 405.378C145.645 404.666 144.328 402.196 145.04 399.859C145.752 397.523 148.222 396.206 150.558 396.918C152.895 397.631 154.212 400.101 153.5 402.437Z" fill="black"/>
<path d="M197.712 257.615C197.463 262.394 197.045 267.089 196.453 271.839C196.157 274.213 195.812 276.59 195.391 278.997C195.169 280.208 194.95 281.425 194.651 282.68C194.519 283.294 194.318 283.984 194.151 284.629C194.068 284.95 193.915 285.372 193.796 285.736L193.602 286.3L193.543 286.462L193.406 286.783C193.309 287.005 193.209 287.2 193.115 287.359C192.716 288.058 192.329 288.512 191.974 288.895C191.61 289.289 191.278 289.582 190.948 289.866C190.299 290.41 189.684 290.827 189.084 291.208C187.886 291.964 186.739 292.561 185.596 293.122C183.314 294.23 181.045 295.122 178.775 295.964C174.224 297.624 169.667 298.946 164.974 300.039C163.609 300.357 162.245 299.508 161.927 298.143C161.655 296.976 162.237 295.809 163.264 295.297L163.307 295.276C167.451 293.21 171.64 291.111 175.676 288.981C177.693 287.916 179.672 286.803 181.51 285.663C182.422 285.095 183.303 284.505 184.035 283.924C184.398 283.637 184.723 283.347 184.954 283.115C185.057 283.004 185.155 282.896 185.177 282.848C185.215 282.796 185.188 282.782 185.069 282.965L184.972 283.146L184.923 283.265C184.914 283.287 184.929 283.231 184.931 283.218L184.991 282.94C185.031 282.739 185.08 282.609 185.122 282.356C185.201 281.854 185.301 281.409 185.371 280.867C185.52 279.818 185.661 278.716 185.791 277.608C186.028 275.368 186.228 273.084 186.429 270.791L187.55 256.96L187.552 256.94C187.779 254.136 190.237 252.047 193.041 252.274C195.789 252.495 197.852 254.875 197.712 257.615Z" fill="#FF8B7B"/>
<path d="M164.37 294.275L157.58 294.651L160.295 302.342C160.295 302.342 166.402 301.255 166.349 297.916L164.37 294.275Z" fill="#FF8B7B"/>
<path d="M152.828 299.879L154.234 302.414C154.794 303.423 156.002 303.879 157.089 303.49L160.295 302.343L157.58 294.652L153.79 296.651C152.621 297.267 152.187 298.723 152.828 299.879Z" fill="#FF8B7B"/>
<path d="M184.229 252.908C193.974 253.733 200.009 252.697 199.024 263.285C198.039 273.873 196.913 277.471 196.913 277.471H184.67C184.67 277.471 183.04 258.111 183.04 256.282C183.039 254.453 184.229 252.908 184.229 252.908Z" fill="#407BFF"/>
<path opacity="0.7" d="M199.025 263.288C198.95 264.11 198.875 264.889 198.801 265.625C198.364 269.723 197.926 272.572 197.574 274.451C197.179 276.596 196.912 277.471 196.912 277.471H184.671C184.671 277.471 184.607 276.671 184.5 275.39C184.073 270.353 183.038 257.739 183.038 256.277C183.038 254.452 184.233 252.905 184.233 252.905C193.977 253.737 200.007 252.702 199.025 263.288Z" fill="white"/>
<path d="M184.106 275.421L199.867 274.296L197.053 280.065H184.106V275.421Z" fill="#407BFF"/>
<path d="M199.868 274.291L197.051 280.065H184.105V275.422L184.5 275.39L191.16 274.921L197.574 274.451L199.868 274.291Z" fill="#407BFF"/>
<path opacity="0.6" d="M199.868 274.291L197.051 280.065H184.105V275.422L184.5 275.39L191.16 274.921L197.574 274.451L199.868 274.291Z" fill="white"/>
<path opacity="0.2" d="M199.868 274.291L197.051 280.065H194.735C193.742 279.425 192.942 278.528 192.312 277.472C191.842 276.693 191.458 275.839 191.159 274.921C189.014 268.635 190.23 259.831 190.23 259.831C193.357 260.482 196.398 262.766 198.8 265.626C198.363 269.724 197.925 272.573 197.573 274.452L199.868 274.291Z" fill="black"/>
<path d="M189.95 400.123L182.403 400.604L176.448 386.604L183.995 386.123L189.95 400.123Z" fill="#E4897B"/>
<path opacity="0.2" d="M183.995 386.123L176.448 386.604L179.525 393.825L187.072 393.344L183.995 386.123Z" fill="black"/>
<path d="M179.559 398.332L187.043 394.785C187.296 394.667 187.597 394.739 187.769 394.959L191.583 399.869C191.92 400.311 191.834 400.942 191.392 401.279C191.333 401.324 191.269 401.362 191.201 401.393C188.761 402.501 186.927 403.188 183.887 404.629C182.014 405.517 176.457 408.39 173.871 409.615C171.285 410.84 169.738 408.446 170.684 407.709C174.942 404.424 177.836 401.297 178.71 399.213C178.87 398.821 179.174 398.506 179.559 398.332Z" fill="#263238"/>
<path d="M178.034 400.378C177.631 400.61 177.161 400.697 176.702 400.625C176.381 400.544 176.125 400.302 176.025 399.986C175.938 399.815 175.961 399.608 176.083 399.46C176.598 398.784 179.167 399.064 179.453 399.101C179.517 399.103 179.573 399.147 179.59 399.209C179.611 399.273 179.591 399.343 179.54 399.386C179.077 399.772 178.572 400.104 178.034 400.378ZM176.512 399.536C176.444 399.561 176.385 399.606 176.342 399.664C176.303 399.683 176.282 399.76 176.33 399.881C176.398 400.089 176.564 400.251 176.775 400.313C177.615 400.299 178.417 399.966 179.021 399.383C178.183 399.273 177.331 399.325 176.512 399.536Z" fill="#407BFF"/>
<path d="M196.348 291.878C196.295 284.755 195.208 262.982 184.226 252.907C184.226 252.907 186.55 250.158 191.059 247.279C195.256 244.591 201.352 241.79 209.226 240.992C213.588 240.55 214.403 240.732 219.84 241.894C219.84 241.894 232.292 256.761 233.18 291.878H196.348Z" fill="#1256ED"/>
<path opacity="0.7" d="M233.175 291.879H196.346C196.336 290.801 196.303 289.392 196.218 287.738C196.069 284.825 195.749 281.132 195.087 277.194C193.647 268.592 190.616 258.774 184.234 252.915C184.234 252.915 186.55 250.162 191.053 247.28C195.258 244.591 201.351 241.795 209.227 240.994C213.592 240.546 214.403 240.727 219.835 241.89C219.835 241.89 221.382 243.747 223.431 247.685C224.541 249.809 225.8 252.551 227.027 255.945C227.529 257.311 228.02 258.784 228.489 260.374C229.738 264.483 230.88 269.328 231.733 274.941C232.492 279.958 233.015 285.603 233.175 291.879Z" fill="white"/>
<path d="M179.505 399.413L179.435 399.446C178.637 399.402 176.764 398.629 176.581 397.92C176.52 397.675 176.64 397.421 176.869 397.313C177.079 397.178 177.337 397.139 177.577 397.208C178.565 397.45 179.553 399.15 179.602 399.233C179.628 399.286 179.625 399.349 179.595 399.4C179.567 399.413 179.536 399.418 179.505 399.413ZM177.083 397.5L177.013 397.533C176.825 397.622 176.861 397.739 176.872 397.782C176.983 398.219 178.253 398.874 179.114 399.051C178.74 398.369 178.167 397.817 177.472 397.469C177.342 397.432 177.204 397.443 177.083 397.5Z" fill="#407BFF"/>
<path d="M234.309 301.52L233.059 286.796L196.293 289.388L194.656 301.75C194.656 301.75 151.649 300.06 146.386 311.528C138.29 329.168 176.318 390.62 176.318 390.62L185.988 389.479C185.988 389.479 164.643 328.858 167.342 326.337C169.204 324.599 208.762 324.998 208.762 324.998C208.762 324.998 236.815 325.101 234.309 301.52Z" fill="#263238"/>
<path opacity="0.4" d="M208.758 324.999C208.758 324.999 197.958 324.892 187.382 325.031C177.713 325.17 168.226 325.511 167.34 326.333C167.073 326.579 167.041 327.368 167.191 328.606V328.617C168.6 340.089 185.984 389.479 185.984 389.479L176.315 390.621C176.315 390.621 138.291 329.172 146.391 311.532C151.652 300.06 194.66 301.756 194.66 301.756L196.293 289.387L233.058 286.794L234.307 301.521C236.814 325.106 208.758 324.999 208.758 324.999Z" fill="white"/>
<path d="M175.521 392.853L187.734 390.902L186.562 387.579L173.275 390.348L175.521 392.853Z" fill="#407BFF"/>
<path opacity="0.5" d="M175.521 392.853L187.734 390.902L186.562 387.579L173.275 390.348L175.521 392.853Z" fill="white"/>
<path d="M220.023 288.581L220.216 293.276L196.357 293.173L196.304 289.713L220.023 288.581Z" fill="#263238"/>
<path d="M221.4 288.516L233.237 287.951L233.49 293.334L221.4 293.282V288.516Z" fill="#263238"/>
<path d="M203.606 293.334L208.239 293.563C208.701 293.586 209.082 293.269 209.082 292.856V289.55C209.082 289.136 208.701 288.82 208.239 288.843L203.606 289.073C203.237 289.091 202.942 289.399 202.942 289.76V292.647C202.942 293.008 203.237 293.316 203.606 293.334Z" fill="white"/>
<path d="M205.157 400.838L197.604 400.469L193.259 385.889L200.812 386.259L205.157 400.838Z" fill="#E4897B"/>
<path opacity="0.2" d="M200.812 386.259L193.259 385.889L195.505 393.41L203.058 393.779L200.812 386.259Z" fill="black"/>
<path d="M196.515 399.406L203.855 395.571C204.103 395.443 204.407 395.504 204.587 395.717L208.59 400.474C208.944 400.902 208.883 401.536 208.454 401.89C208.397 401.937 208.334 401.978 208.268 402.012C205.873 403.214 204.067 403.972 201.086 405.53C199.249 406.49 193.808 409.578 191.272 410.903C188.736 412.228 187.096 409.896 188.013 409.123C192.14 405.675 194.91 402.437 195.702 400.321C195.845 399.922 196.137 399.595 196.515 399.406Z" fill="#263238"/>
<path d="M195.071 401.51C194.678 401.757 194.211 401.863 193.75 401.809C193.426 401.741 193.16 401.509 193.049 401.197C192.956 401.029 192.97 400.822 193.086 400.669C193.574 399.974 196.153 400.153 196.44 400.178C196.504 400.177 196.562 400.219 196.581 400.28C196.604 400.343 196.587 400.414 196.538 400.459C196.089 400.863 195.597 401.216 195.071 401.51ZM193.517 400.728C193.45 400.756 193.393 400.803 193.353 400.863C193.315 400.883 193.296 400.961 193.349 401.08C193.425 401.286 193.598 401.441 193.81 401.495C194.648 401.448 195.438 401.085 196.018 400.478C195.176 400.4 194.327 400.485 193.517 400.728Z" fill="#407BFF"/>
<path d="M196.503 400.488L196.434 400.524C195.635 400.511 193.733 399.812 193.523 399.11C193.452 398.867 193.563 398.609 193.787 398.492C193.991 398.348 194.248 398.3 194.491 398.359C195.488 398.562 196.541 400.223 196.593 400.303C196.621 400.355 196.621 400.418 196.592 400.47C196.565 400.486 196.534 400.492 196.503 400.488ZM194.008 398.671L193.939 398.707C193.755 398.803 193.796 398.919 193.808 398.962C193.936 399.394 195.231 399.999 196.098 400.143C195.698 399.476 195.104 398.947 194.395 398.626C194.265 398.593 194.127 398.609 194.008 398.671Z" fill="#407BFF"/>
<path d="M192.23 391.177L204.545 392.31L204.233 388.801L190.674 388.194L192.23 391.177Z" fill="#407BFF"/>
<path opacity="0.5" d="M192.23 391.177L204.545 392.31L204.233 388.801L190.674 388.194L192.23 391.177Z" fill="white"/>
<path opacity="0.2" d="M187.382 325.031C177.713 325.17 168.226 325.511 167.34 326.333C167.073 326.579 167.041 327.368 167.191 328.606C160.576 306.643 193.924 306.643 193.924 306.643C196.922 311.563 193.081 319.257 187.382 325.031Z" fill="black"/>
<path d="M228.965 294C228.965 294 234.395 312.599 225.617 320.809C216.839 329.019 188.775 325.242 188.775 325.242L198.732 387.105H188.065C188.065 387.105 161.98 328.039 167.865 313.632C173.75 299.224 214.727 302.233 214.727 302.233L228.965 294Z" fill="#263238"/>
<path opacity="0.4" d="M228.965 294C228.965 294 234.395 312.599 225.617 320.809C216.839 329.019 188.775 325.242 188.775 325.242L198.732 387.105H188.065C188.065 387.105 161.98 328.039 167.865 313.632C173.75 299.224 214.727 302.233 214.727 302.233L228.965 294Z" fill="white"/>
<path d="M200.156 241.251C205.132 239.623 212.269 241.251 212.269 241.251L205.433 254.201L200.457 251.668L198.672 255.064C198.672 255.064 193.258 249.797 193.986 247.19C194.632 244.878 200.156 241.251 200.156 241.251Z" fill="#407BFF"/>
<path d="M195.124 246.274C194.576 246.798 193.986 247.191 193.986 247.191C193.986 247.191 196.466 251.611 202.082 250.735C207.689 249.851 209.31 241.469 209.31 241.469C209.31 241.469 205.651 241.51 204.022 240.765C202.393 240.028 198.98 234.986 198.98 234.986L197.957 235.87L191.605 241.363C191.605 241.363 196.14 243.95 196.033 244.924C195.991 245.357 195.566 245.865 195.124 246.274Z" fill="#E4897B"/>
<path opacity="0.2" d="M231.734 274.942C226.035 287.599 210.454 289.552 212.268 286.799C214.274 283.736 216.462 262.307 216.462 262.307C216.462 262.307 223.431 259.436 228.489 260.375C229.738 264.484 230.88 269.329 231.734 274.942Z" fill="black"/>
<path opacity="0.2" d="M196.032 244.923C195.991 245.357 195.565 245.864 195.123 246.274C199.879 245.3 198.479 235.902 198.479 235.902C198.479 235.902 198.291 235.886 197.955 235.869L191.603 241.362C191.603 241.362 196.139 243.949 196.032 244.923Z" fill="black"/>
<path d="M177.107 225.554C177.107 225.554 177.001 233.371 182.428 236.281C187.855 239.191 185.503 221.862 185.503 221.862L177.107 225.554Z" fill="#263238"/>
<path d="M180.799 239.504C181.167 240.347 181.568 241.133 181.994 241.845C182.133 242.066 182.264 242.279 182.411 242.475C182.46 242.541 182.509 242.606 182.558 242.671C184.072 244.685 186.242 245.929 188.517 246.322C188.893 246.388 189.278 246.429 189.655 246.453C192.749 246.6 195.86 245.193 197.611 242.033C197.677 241.935 197.726 241.837 197.775 241.738C200.01 237.424 198.733 233.651 197.095 227.094C196.759 225.678 196.113 224.368 195.171 223.255C191.897 219.342 186.069 218.827 182.172 222.101C177.393 226.038 178.359 233.97 180.799 239.504Z" fill="#E4897B"/>
<path d="M187.881 231.966C188.08 232.474 187.905 233 187.556 233.109C187.207 233.218 186.802 232.874 186.635 232.352C186.468 231.831 186.619 231.315 186.96 231.209C187.301 231.104 187.711 231.437 187.881 231.966Z" fill="#263238"/>
<path d="M181.951 233.827C182.151 234.335 181.967 234.864 181.626 234.97C181.286 235.076 180.872 234.735 180.705 234.214C180.538 233.693 180.689 233.177 181.03 233.071C181.37 232.965 181.793 233.33 181.951 233.827Z" fill="#263238"/>
<path d="M183.916 233.494C183.795 235.294 183.425 237.069 182.818 238.768C183.711 239.06 184.688 238.943 185.487 238.448L183.916 233.494Z" fill="#DE5753"/>
<path d="M188.495 228.173C188.396 228.242 188.268 228.253 188.159 228.202C187.43 227.825 186.566 227.814 185.827 228.173C185.675 228.264 185.478 228.215 185.387 228.064C185.296 227.912 185.345 227.715 185.497 227.624L185.498 227.623C186.42 227.146 187.516 227.145 188.438 227.622C188.599 227.695 188.671 227.885 188.598 228.046C188.597 228.048 188.596 228.051 188.595 228.053C188.568 228.098 188.535 228.138 188.495 228.173Z" fill="#263238"/>
<path d="M187.022 240.478C188.314 239.509 189.051 237.971 188.999 236.356C188.989 236.263 188.906 236.194 188.813 236.202C188.722 236.207 188.652 236.285 188.658 236.375C188.658 236.379 188.659 236.383 188.659 236.388C188.677 237.882 187.99 239.296 186.806 240.207C186.732 240.26 186.715 240.363 186.768 240.437C186.772 240.442 186.776 240.447 186.779 240.451C186.832 240.525 186.935 240.542 187.009 240.489C187.013 240.486 187.018 240.482 187.022 240.478Z" fill="#263238"/>
<path d="M178.666 232.023C178.601 232.031 178.536 232.019 178.478 231.988C178.341 231.875 178.322 231.673 178.435 231.536C178.436 231.534 178.438 231.532 178.44 231.531C179.097 230.723 180.106 230.286 181.145 230.359C181.321 230.382 181.445 230.543 181.422 230.718C181.395 230.892 181.236 231.015 181.062 230.996C180.24 230.962 179.451 231.319 178.934 231.959C178.859 232.018 178.761 232.042 178.666 232.023Z" fill="#263238"/>
<path d="M200.741 236.822C199.889 237.5 198.605 236.988 198.484 235.905C198.248 233.781 197.627 231.967 197.083 231.958C196.133 231.941 196.35 233.005 196.35 233.005C194.099 231.994 191.741 228.599 192.036 225.933C192.247 224.022 190.15 222.883 188.457 223.714C188.457 223.714 195.012 218.993 196.883 220.416C198.754 221.839 201.273 226.639 201.302 232.761C201.309 234.43 201.077 235.758 200.741 236.822Z" fill="#263238"/>
<path d="M201.566 231.497C201.309 233.179 200.395 234.69 199.025 235.699C197.202 237.022 195.509 235.578 195.355 233.447C195.237 231.552 196.014 228.525 198.17 228.065C200.327 227.604 201.856 229.428 201.566 231.497Z" fill="#E4897B"/>
<path d="M191.604 222.633C191.604 222.633 181.369 230.302 175.74 227.264C170.111 224.226 175.74 217.893 175.74 217.893C175.74 217.893 175.881 220.718 177.71 220.15C177.71 220.15 176.423 217.471 179.177 216.345C179.177 216.345 178.638 218.315 180.637 218.315C182.635 218.315 185.247 214.938 190.767 215.078C196.287 215.219 200.248 220.231 198.673 223.662C197.096 227.094 191.604 222.633 191.604 222.633Z" fill="#263238"/>
<path d="M207.039 240.264L200.456 250.94L194.649 245.602C194.649 245.602 191.617 249.783 198.472 256.285L200.51 252.126L206.066 255.065L212.269 241.251L207.039 240.264Z" fill="#407BFF"/>
<path opacity="0.6" d="M207.039 240.264L200.456 250.94L194.649 245.602C194.649 245.602 191.617 249.783 198.472 256.285L200.51 252.126L206.066 255.065L212.269 241.251L207.039 240.264Z" fill="white"/>
<path d="M228.9 258.594C228.844 263.129 228.605 267.554 228.104 272.077C227.866 274.341 227.556 276.592 227.125 278.941C227.019 279.529 226.88 280.137 226.752 280.731C226.612 281.339 226.428 281.992 226.263 282.617L225.901 283.694L225.697 284.263C225.615 284.465 225.526 284.664 225.43 284.86C225.34 285.033 225.251 285.186 225.156 285.347C224.409 286.521 223.745 287.084 223.131 287.627C221.913 288.639 220.808 289.272 219.716 289.887C218.625 290.488 217.557 291.01 216.491 291.5C214.347 292.447 212.233 293.296 210.093 294.043C205.823 295.569 201.542 296.794 197.137 297.817C195.772 298.134 194.408 297.284 194.091 295.919C193.82 294.752 194.401 293.586 195.429 293.074L195.471 293.054C199.358 291.116 203.285 289.141 207.091 287.159C208.984 286.145 210.871 285.148 212.635 284.069C213.522 283.545 214.385 283.007 215.172 282.459C215.954 281.922 216.689 281.331 217.124 280.886C217.324 280.692 217.443 280.461 217.265 280.691C217.236 280.731 217.217 280.766 217.191 280.816C217.15 280.885 217.116 280.958 217.088 281.034C217.083 281.021 217.115 280.883 217.127 280.815L217.241 280.311L217.448 278.97L217.625 277.504C217.856 275.499 217.962 273.365 218.101 271.243L218.716 258.352L218.719 258.29C218.853 255.48 221.239 253.311 224.049 253.445C226.795 253.574 228.93 255.867 228.9 258.594Z" fill="#FF8B7B"/>
<path d="M196.533 292.053L189.743 292.43L192.459 300.121C192.459 300.121 198.566 299.034 198.513 295.696L196.533 292.053Z" fill="#FF8B7B"/>
<path d="M184.991 297.657L186.397 300.192C186.957 301.201 188.165 301.657 189.252 301.268L192.458 300.121L189.742 292.43L185.952 294.429C184.784 295.045 184.35 296.501 184.991 297.657Z" fill="#FF8B7B"/>
<path d="M218.908 241.696C228.653 242.521 231.104 250.475 230.119 261.063C229.134 271.651 229.075 275.249 229.075 275.249H216.832C216.832 275.249 216.269 255.89 216.269 254.06C216.269 252.23 218.908 241.696 218.908 241.696Z" fill="#407BFF"/>
<path opacity="0.7" d="M218.908 241.696C228.653 242.521 231.104 250.475 230.119 261.063C229.134 271.651 229.075 275.249 229.075 275.249H216.832C216.832 275.249 216.269 255.89 216.269 254.06C216.269 252.23 218.908 241.696 218.908 241.696Z" fill="white"/>
<path d="M216.269 273.199L232.031 272.073L229.216 277.843H216.269V273.199Z" fill="#407BFF"/>
<path d="M216.269 273.199L232.031 272.073L229.216 277.843H216.269V273.199Z" fill="#407BFF"/>
<path opacity="0.6" d="M216.269 273.199L232.031 272.073L229.216 277.843H216.269V273.199Z" fill="white"/>
<path d="M144.836 300.708V303.377C144.836 304.061 145.642 304.342 146.318 304.342H199.65C200.335 304.342 201.159 304.062 201.159 303.377V300.708H144.836Z" fill="#D2D7E0"/>
<path opacity="0.4" d="M144.836 300.708V303.377C144.836 304.061 145.642 304.342 146.318 304.342H199.65C200.335 304.342 201.159 304.062 201.159 303.377V300.708H144.836Z" fill="white"/>
<path opacity="0.2" d="M144.836 300.708V303.377C144.836 304.061 145.642 304.342 146.318 304.342H181.494C182.178 304.342 182.991 304.062 182.991 303.377V300.708H144.836Z" fill="black"/>
<path d="M135.912 273L142.261 301.798C142.467 302.746 143.391 303.435 144.322 303.435H179.003C179.927 303.435 180.52 302.574 180.306 301.626L173.965 273.048C173.751 272.108 172.835 271.639 171.904 271.639H137.223C136.292 271.638 135.706 272.06 135.912 273Z" fill="#D2D7E0"/>
<path opacity="0.4" d="M135.912 273L142.261 301.798C142.467 302.746 143.391 303.435 144.322 303.435H177.824C178.756 303.435 179.341 302.574 179.135 301.626L172.786 273.048C172.58 272.108 171.656 271.639 170.725 271.639H137.223C136.292 271.638 135.706 272.06 135.912 273Z" fill="white"/>
<path opacity="0.2" d="M153.012 287.637V287.645C153.012 290.111 155.656 292.114 157.593 292.114C159.531 292.114 160.679 290.11 160.127 287.645C159.574 285.229 157.646 283.258 155.75 283.184C156.303 285.649 155.119 287.645 153.189 287.645C153.148 287.645 153.012 287.645 153.012 287.637Z" fill="black"/>
<path d="M308.206 222.108L310.685 229.982C311.509 232.607 312.323 235.234 313.171 237.816C313.591 239.107 314.024 240.388 314.476 241.622C314.699 242.24 314.924 242.845 315.152 243.405C315.267 243.691 315.378 243.943 315.486 244.185L315.629 244.483C315.656 244.53 315.681 244.587 315.686 244.61C315.609 244.652 315.841 245.009 316.169 245.319C316.496 245.645 316.929 246.013 317.415 246.355C318.364 247.052 319.527 247.787 320.594 248.5L319.701 252.364C318.073 252.403 316.583 252.274 314.987 251.851C314.2 251.638 313.389 251.373 312.549 250.944C311.717 250.501 310.815 250.008 309.909 248.926C309.693 248.68 309.55 248.431 309.385 248.188L309.022 247.574C308.814 247.196 308.619 246.826 308.448 246.478C308.1 245.773 307.786 245.096 307.494 244.424C306.914 243.076 306.384 241.75 305.869 240.423C304.852 237.768 303.913 235.118 303.028 232.453C302.15 229.782 301.307 227.126 300.535 224.408L308.206 222.108Z" fill="#B97864"/>
<path d="M296.449 219.508C295.161 222.851 304.017 236.273 304.017 236.273L314.001 230.757C314.001 230.757 309.802 218.81 305.671 216.758C302.163 215.015 298.09 215.249 296.449 219.508Z" fill="#FF40CA"/>
<path opacity="0.6" d="M296.449 219.508C295.161 222.851 304.017 236.273 304.017 236.273L314.001 230.757C314.001 230.757 309.802 218.81 305.671 216.758C302.163 215.015 298.09 215.249 296.449 219.508Z" fill="white"/>
<path d="M270.875 394.518L274.988 396.936C274.988 396.936 276.981 394.1 281.239 389.527V389.519C282.431 388.259 283.683 386.862 284.986 385.363C287.592 382.374 290.41 378.959 293.365 375.289C294.233 374.208 295.119 373.101 296.013 371.976C306.308 359.024 317.438 343.798 321.602 333.503C322.896 330.301 323.526 327.585 323.246 325.55C322.403 319.402 320.01 310.145 317.277 301.204C313.121 287.537 308.446 274.584 308.446 274.584L296.959 294.042C296.959 294.042 300.484 302.447 303.695 311.397C306.854 320.185 309.707 329.509 308.651 331.936C308.549 332.174 308.421 332.455 308.276 332.754C306.368 336.705 301.089 345.655 295.094 355.542C294.49 356.538 293.876 357.543 293.263 358.548C290.044 363.828 286.697 369.252 283.598 374.234C282.389 376.193 281.214 378.083 280.098 379.871C274.817 388.361 270.875 394.518 270.875 394.518Z" fill="#B97964"/>
<path opacity="0.2" d="M296.246 371.977C290.813 378.806 285.593 385.006 281.71 389.519C281.156 386.743 280.594 383.456 280.152 379.871C284.64 372.667 290.132 363.777 295.122 355.542C295.08 359.902 295.241 366.349 296.246 371.977Z" fill="black"/>
<path d="M275.746 315.672C277.168 325.371 279.195 334.159 280.515 339.396C281.307 342.538 281.843 344.395 281.843 344.395C281.767 354.179 282.55 364.662 283.597 374.233C284.031 378.133 284.5 381.88 284.985 385.363C286.773 398.255 288.655 407.512 288.655 407.512L293.551 406.873L293.364 375.289L293.262 358.547L293.126 335.768L293.075 331.8L292.837 314.479L292.488 288.932L275.457 281.268C273.174 290.977 274.025 303.989 275.746 315.672Z" fill="#B97964"/>
<path opacity="0.2" d="M321.32 315.831C316.968 318.837 311.093 320.642 307.073 321.613C306.145 318.437 304.944 314.869 303.692 311.394C300.482 302.444 296.956 294.039 296.956 294.039L308.443 274.581C308.443 274.581 313.118 287.533 317.274 301.201C318.799 306.174 320.213 311.25 321.32 315.831Z" fill="black"/>
<path opacity="0.2" d="M292.98 325.198C286.602 325.028 281.382 324.602 277.15 324.057C276.656 321.392 276.171 318.573 275.745 315.669C274.025 303.986 273.173 290.974 275.455 281.266L292.486 288.93L292.835 314.477L292.98 325.198Z" fill="black"/>
<path d="M322.144 314.138C311.491 320.397 280.156 323.052 280.156 323.052L275.03 308.644L275.589 322.896H274.071C274.071 322.896 262.619 284.155 277.832 258.76L305.082 256.657L308.062 270.691C308.062 270.691 315.74 290.806 322.144 314.138Z" fill="#263238"/>
<path d="M302.163 413.788C301.359 413.306 300.473 412.976 299.551 412.813C299.551 412.813 296.542 410.571 294.154 402.872L290.573 402.462C289.331 402.341 288.145 403.009 287.606 404.135C287.53 404.288 287.478 404.451 287.451 404.62C287.393 405.49 287.391 406.362 287.446 407.232C287.477 409.948 288.624 415.891 288.624 415.891L289.248 415.802L288.725 410.335C288.556 408.478 290.274 410.441 290.96 412.369C291.646 414.297 292.804 416.289 296.86 415.814C301.588 415.237 303.519 414.775 302.163 413.788Z" fill="#2E353A"/>
<path d="M293.164 400.141C293.164 400.141 294.441 403.628 296.144 407.46C297.847 411.292 299.55 412.814 299.55 412.814C299.55 412.814 296.592 413.775 294.995 411.92C293.398 410.065 290.667 403.366 287.604 404.136C287.604 404.136 287.828 403.336 288.287 402.578C288.747 401.818 293.164 400.141 293.164 400.141Z" fill="#B97964"/>
<path d="M272.159 410.76C271.987 409.839 271.647 408.957 271.158 408.158C271.158 408.158 270.843 404.418 275.026 397.529L272.96 394.575C272.227 393.565 270.941 393.12 269.741 393.461C269.576 393.505 269.419 393.574 269.275 393.666C268.585 394.199 267.931 394.776 267.315 395.393C265.302 397.216 261.612 402.014 261.612 402.014L262.092 402.423L265.84 398.408C267.118 397.051 266.787 399.638 265.798 401.43C264.809 403.222 264.085 405.408 267.128 408.132C270.693 411.289 272.319 412.429 272.159 410.76Z" fill="#2E353A"/>
<path d="M276.415 394.977C276.415 394.977 274.651 398.244 272.91 402.059C271.169 405.874 271.158 408.158 271.158 408.158C271.158 408.158 268.478 406.579 268.809 404.154C269.14 401.729 272.347 395.244 269.74 393.461C269.74 393.461 270.488 393.099 271.36 392.94C272.232 392.78 276.415 394.977 276.415 394.977Z" fill="#B97964"/>
<path d="M277.587 255.974L277.432 260.085L305.594 258.99L305.778 254.128L277.587 255.974Z" fill="#263238"/>
<path opacity="0.2" d="M277.587 255.974L277.432 260.085L305.594 258.99L305.778 254.128L277.587 255.974Z" fill="white"/>
<path d="M287.069 254.605L285.674 254.624L285.768 261.732L287.164 261.713L287.069 254.605Z" fill="#263238"/>
<path d="M304.296 253.369L302.9 253.387L302.995 260.496L304.391 260.477L304.296 253.369Z" fill="#263238"/>
<path d="M298.836 254.867C298.499 254.554 298.044 254.39 297.581 254.429L294.254 254.691C293.393 254.759 292.739 255.461 292.732 256.325L292.716 258.448C292.713 258.91 292.905 259.355 293.243 259.669C293.546 259.951 293.946 260.108 294.356 260.112C294.404 260.112 294.452 260.11 294.5 260.106L297.827 259.837C298.686 259.768 299.339 259.066 299.345 258.203L299.361 256.087C299.366 255.627 299.174 255.182 298.836 254.867ZM297.76 258.989L294.434 259.258C294.206 259.278 293.991 259.201 293.824 259.046C293.658 258.892 293.567 258.681 293.569 258.454L293.585 256.331C293.588 255.913 293.905 255.572 294.322 255.539L297.648 255.277C297.672 255.276 297.695 255.274 297.719 255.274C297.919 255.275 298.108 255.351 298.256 255.489C298.422 255.643 298.512 255.854 298.511 256.08L298.508 256.402C298.465 256.395 298.423 256.381 298.378 256.385L297.447 256.45C297.137 256.472 296.901 256.743 296.923 257.053C296.945 257.363 297.216 257.599 297.526 257.577L298.457 257.512C298.473 257.511 298.485 257.502 298.501 257.5L298.496 258.197C298.492 258.616 298.176 258.956 297.76 258.989Z" fill="white"/>
<path d="M269.935 219.963C270.54 221.503 270.294 222.09 270.792 223.47C271.344 224.948 271.851 226.336 272.305 227.654C273.4 230.752 274.254 233.431 274.94 235.808C277.041 243.152 277.397 257.269 277.397 257.269L305.734 255.287C307.7 229.02 303.193 216.048 303.193 216.048C303.193 216.048 302.481 215.986 301.341 215.905C299.178 215.754 295.466 215.531 292.084 215.558C288.078 215.682 284.099 216.065 280.156 216.688C277.477 217.087 273.187 217.787 269.935 219.963Z" fill="#FF40CA"/>
<g opacity="0.6">
<path d="M269.935 219.963C270.54 221.503 270.294 222.09 270.792 223.47C271.344 224.948 271.851 226.336 272.305 227.654C273.4 230.752 274.254 233.431 274.94 235.808C277.041 243.152 277.397 257.269 277.397 257.269L305.734 255.287C307.7 229.02 303.193 216.048 303.193 216.048C303.193 216.048 302.481 215.986 301.341 215.905C299.178 215.754 295.466 215.531 292.084 215.558C288.078 215.682 284.099 216.065 280.156 216.688C277.477 217.087 273.187 217.787 269.935 219.963Z" fill="white"/>
</g>
<path d="M290.583 221.667C284.355 219.051 283.179 215.755 283.179 215.755C288.347 213.025 286.8 205.384 286.8 205.384L294.17 208.989C293.61 210.217 293.224 211.27 292.959 212.177C291.593 216.878 293.713 217.515 293.713 217.515C294.369 220.449 290.583 221.667 290.583 221.667Z" fill="#B97964"/>
<path opacity="0.2" d="M294.169 208.989C293.609 210.217 293.223 211.27 292.958 212.177C289.452 210.27 286.799 205.384 286.799 205.384L294.169 208.989Z" fill="black"/>
<path d="M281.938 216.423L286.326 226.011L291.061 221.973L296.073 224.043L295.494 215.601L292.466 213.239L291.061 221.361L284.381 213.609L281.938 216.423Z" fill="#FF40CA"/>
<path opacity="0.4" d="M281.938 216.423L286.326 226.011L291.061 221.973L296.073 224.043L295.494 215.601L292.466 213.239L291.061 221.361L284.381 213.609L281.938 216.423Z" fill="white"/>
<path d="M307.149 185.81C307.149 185.81 310.379 185.867 310.962 189.756C311.545 193.644 309.01 194.065 309.01 194.065C309.01 194.065 310.298 198.329 306.037 198.101C301.776 197.873 285.955 197.488 285.955 197.488C285.955 197.488 283.242 195.875 283.178 193.521C283.114 191.166 284.875 189.757 284.875 189.757C284.875 189.757 281.819 186.586 285.82 183.482C289.822 180.376 307.149 185.81 307.149 185.81Z" fill="#263238"/>
<path d="M296.073 178.883C296.073 178.883 298.632 176.444 295.83 173.234C295.83 173.234 296.965 169.003 293.028 167.837C289.091 166.67 287.031 169.295 287.031 169.295C287.031 169.295 283.507 165.504 280.54 167.983C277.573 170.462 279.469 174.122 279.469 174.122C279.469 174.122 274.715 174.309 276.217 178.217C277.72 182.125 280.541 181.688 280.541 181.688C280.541 181.688 278.696 183.146 280.541 185.187C282.386 187.228 287.818 185.187 287.818 185.187L296.073 178.883Z" fill="#263238"/>
<path d="M300.461 189.756C300.461 189.756 301.37 197.905 300.595 200.896C302.51 204.155 307.684 196.309 309.01 190.42C302.692 190.702 300.461 189.756 300.461 189.756Z" fill="#263238"/>
<path d="M287.452 191.343C285.656 198.17 284.75 201.022 286.997 205.571C290.377 212.414 299.156 213.127 302.955 206.974C306.375 201.436 308.738 191.201 303.066 186.378C297.477 181.625 289.248 184.515 287.452 191.343Z" fill="#B97964"/>
<path d="M285.552 187.146C285.552 187.146 285.816 193.674 285.032 196.008C286.371 198.706 290.925 192.761 292.311 188.155C293.345 183.984 285.552 187.146 285.552 187.146Z" fill="#263238"/>
<path d="M287.262 177.813C285.25 179.425 284.604 181.962 285.82 183.481C287.036 185 289.653 184.924 291.666 183.312C293.678 181.7 294.324 179.163 293.108 177.644C291.892 176.125 289.275 176.201 287.262 177.813Z" fill="#FF40CA"/>
<path d="M307.149 185.81C306.758 182.37 300.893 177.733 293.256 178.258C286.373 178.731 282.386 186.577 286.609 188.418C290.833 190.259 297.424 187.797 297.424 187.797L307.149 185.81Z" fill="#263238"/>
<path d="M283.935 196.439C283.883 197.902 284.511 199.252 285.344 200.119C286.598 201.423 288.14 200.523 288.557 198.86C288.933 197.364 288.734 194.882 287.107 194.198C285.505 193.525 283.995 194.767 283.935 196.439Z" fill="#B97964"/>
<path d="M297.643 196.81C297.463 197.355 297.606 197.892 297.963 198.009C298.319 198.126 298.753 197.78 298.933 197.235C299.113 196.69 298.97 196.153 298.613 196.036C298.257 195.919 297.823 196.266 297.643 196.81Z" fill="#263238"/>
<path d="M303.802 198.842C303.622 199.387 303.765 199.924 304.121 200.041C304.477 200.158 304.912 199.812 305.091 199.267C305.271 198.722 305.128 198.185 304.772 198.068C304.416 197.95 303.981 198.297 303.802 198.842Z" fill="#263238"/>
<path d="M304.605 198.046L306.038 198.1C306.038 198.1 305.029 198.901 304.605 198.046Z" fill="#263238"/>
<path d="M301.207 198.991C301.207 198.991 301.358 201.642 302.003 203.109C301.062 203.543 299.94 202.833 299.94 202.833L301.207 198.991Z" fill="#A24E3F"/>
<path d="M296.355 203.895C294.618 202.917 294.179 201.335 294.159 201.258C294.139 201.183 294.184 201.107 294.258 201.087C294.332 201.067 294.409 201.111 294.429 201.186C294.435 201.207 295.012 203.264 297.41 204.054C297.487 204.078 297.523 204.158 297.499 204.231C297.475 204.305 297.396 204.344 297.322 204.32C296.963 204.201 296.641 204.056 296.355 203.895Z" fill="#263238"/>
<path d="M295.383 193.033C295.34 193.009 295.303 192.973 295.277 192.927C295.201 192.792 295.248 192.622 295.383 192.545C296.979 191.643 298.341 192.33 298.399 192.36C298.538 192.446 298.589 192.6 298.518 192.736C298.448 192.873 298.279 192.928 298.142 192.858C298.095 192.834 296.983 192.285 295.659 193.033C295.57 193.083 295.465 193.08 295.383 193.033Z" fill="#263238"/>
<path d="M306.904 196.931C306.864 196.908 306.829 196.875 306.803 196.833C306.002 195.524 304.732 195.473 304.719 195.473C304.563 195.468 304.443 195.339 304.447 195.185C304.451 195.03 304.58 194.909 304.735 194.913C304.8 194.915 306.325 194.976 307.28 196.541C307.361 196.673 307.319 196.846 307.187 196.926C307.099 196.981 306.99 196.979 306.904 196.931Z" fill="#263238"/>
<path d="M298.446 196.015L299.879 196.069C299.879 196.069 298.87 196.87 298.446 196.015Z" fill="#263238"/>
<path d="M303.598 180.997C303.598 180.997 308.63 180.258 309.942 184.035C311.254 187.812 304.415 191.263 302.003 189.756C302.003 189.756 296.675 194.319 293.321 190.118C293.321 190.118 290.045 191.939 287.819 189.22C285.594 186.5 298.42 175.931 303.598 180.997Z" fill="#263238"/>
<path d="M303.283 221.211L301.644 219.931L292.636 231.463L294.275 232.743L303.283 221.211Z" fill="#263238"/>
<path d="M312.279 208.925C312.132 208.81 311.555 208.359 311.408 208.244C309.09 206.433 305.058 207.722 302.401 211.122C299.745 214.522 299.47 218.747 301.788 220.558C301.935 220.673 302.512 221.124 302.659 221.239C304.977 223.05 309.009 221.761 311.666 218.361C314.323 214.96 314.597 210.736 312.279 208.925ZM304.143 212.484C306.198 209.853 309.241 208.607 311.121 209.509C312.452 211.115 311.978 214.369 309.923 217C307.868 219.63 304.825 220.877 302.945 219.975C301.615 218.368 302.088 215.115 304.143 212.484ZM311.203 217.119C311.074 217.309 310.939 217.496 310.795 217.681C310.651 217.865 310.502 218.042 310.349 218.213C310.501 218.041 310.651 217.866 310.795 217.681C310.939 217.496 311.073 217.308 311.203 217.119ZM303.716 211.274C303.565 211.445 303.416 211.62 303.273 211.803C303.13 211.986 302.997 212.173 302.867 212.361C302.995 212.172 303.13 211.986 303.273 211.803C303.415 211.62 303.563 211.444 303.716 211.274Z" fill="#263238"/>
<path opacity="0.2" d="M312.279 208.925C309.961 207.114 305.929 208.403 303.272 211.803C300.616 215.203 300.341 219.428 302.659 221.239C304.977 223.05 309.009 221.761 311.666 218.361C314.323 214.96 314.597 210.736 312.279 208.925ZM303.339 220.368C301.537 218.96 301.905 215.349 304.143 212.484C306.381 209.619 309.795 208.388 311.598 209.796C313.401 211.205 313.033 214.815 310.794 217.68C308.556 220.546 305.142 221.776 303.339 220.368Z" fill="white"/>
<path opacity="0.2" d="M280.235 232.263C280.235 232.263 283.004 241.379 276.42 243.871C269.836 246.364 280.235 232.263 280.235 232.263Z" fill="black"/>
<path d="M279.106 227.363L278.609 237.676C278.542 239.365 278.513 241.068 278.572 242.571C278.615 243.272 278.677 243.947 278.713 244.027C278.714 244.074 278.657 243.934 278.322 243.693C277.999 243.447 277.473 243.4 277.36 243.436C277.1 243.529 277.682 243.435 278.192 243.137C278.74 242.841 279.356 242.424 279.974 241.963C281.213 241.026 282.448 239.894 283.668 238.728C286.087 236.372 288.484 233.797 290.777 231.231L294.031 233.498C292.227 236.687 290.268 239.69 287.98 242.603C286.836 244.06 285.612 245.475 284.178 246.85C283.456 247.539 282.675 248.211 281.724 248.851C281.24 249.17 280.714 249.485 280.075 249.769C279.434 250.047 278.674 250.32 277.646 250.393C276.652 250.489 275.226 250.196 274.184 249.437C273.12 248.687 272.566 247.775 272.195 247.029C271.489 245.492 271.382 244.375 271.186 243.335C270.907 241.32 270.824 239.485 270.767 237.643C270.676 233.969 270.81 230.412 271.119 226.78L279.106 227.363Z" fill="#B97864"/>
<path d="M290.693 230.873L294.476 225.77L297.905 232.365C297.905 232.365 294.436 234.3 291.55 233.657L290.693 230.873Z" fill="#B97964"/>
<path d="M299.185 224.567L300.818 229.939L297.906 232.365L294.476 225.77L299.185 224.567Z" fill="#B97964"/>
<path d="M270.558 219.583C267.644 221.667 267.66 237.747 267.66 237.747L279.032 238.63C279.032 238.63 282.095 226.342 279.772 222.357C277.801 218.973 274.271 216.929 270.558 219.583Z" fill="#FF40CA"/>
<path opacity="0.6" d="M270.558 219.583C267.644 221.667 267.66 237.747 267.66 237.747L279.032 238.63C279.032 238.63 282.095 226.342 279.772 222.357C277.801 218.973 274.271 216.929 270.558 219.583Z" fill="white"/>
<path d="M315.71 241.466C315.71 241.466 316.211 231.734 326.599 230.094L325.396 232.062L327.692 230.705L317.194 243.872L315.71 241.466Z" fill="#FF40CA"/>
<path opacity="0.8" d="M315.71 241.466C315.71 241.466 316.211 231.734 326.599 230.094L325.396 232.062L327.692 230.705L317.194 243.872L315.71 241.466Z" fill="white"/>
<path d="M299.256 230.664L302.866 230.546L320.148 236.412L304.4 260.472L288.903 256.601C287.841 256.336 287.319 255.136 287.848 254.177L294.107 242.857C294.231 242.633 294.229 242.361 294.103 242.138L293.249 240.63C293.081 240.332 293.076 239.969 293.237 239.668L297.437 231.794C297.798 231.12 298.491 230.689 299.256 230.664Z" fill="#FF40CA"/>
<path d="M320.147 236.411L329.989 230.093L313.805 254.128L304.4 260.472L320.147 236.411Z" fill="#FF40CA"/>
<path opacity="0.2" d="M320.147 236.411L329.989 230.093L313.805 254.128L304.4 260.472L320.147 236.411Z" fill="black"/>
<path d="M321.824 245.658L317.665 243.872L315.219 248.925L316.648 251.417C316.648 251.417 317.194 253.358 319.315 252.663C320.361 252.321 321.605 250.176 321.933 249.126C322.193 248.298 321.824 245.658 321.824 245.658Z" fill="#B97964"/>
</svg>
