<svg width="28" height="28" viewBox="0 0 28 28" fill="none" xmlns="http://www.w3.org/2000/svg">
<path d="M8.16669 9.91663L11.599 11.9459C13.6001 13.129 14.4 13.129 16.401 11.9459L19.8334 9.91663" stroke="#FCFFFC" stroke-width="2.33333" stroke-linecap="round" stroke-linejoin="round"/>
<path d="M2.35171 15.7216C2.42798 19.2981 2.46611 21.0863 3.78577 22.411C5.10541 23.7356 6.94203 23.7817 10.6153 23.874C12.8792 23.9309 15.1208 23.9309 17.3847 23.874C21.058 23.7817 22.8945 23.7356 24.2143 22.411C25.5339 21.0863 25.572 19.2981 25.6482 15.7216C25.6728 14.5716 25.6728 13.4285 25.6482 12.2785C25.572 8.70204 25.5339 6.91381 24.2143 5.58915C22.8945 4.26448 21.058 4.21834 17.3847 4.12604C15.1208 4.06915 12.8792 4.06915 10.6153 4.12603C6.94203 4.21831 5.10541 4.26445 3.78575 5.58913C2.4661 6.9138 2.42798 8.70203 2.3517 12.2785C2.32718 13.4285 2.32719 14.5716 2.35171 15.7216Z" stroke="#FCFFFC" stroke-width="2.33333" stroke-linejoin="round"/>
</svg>
